<svg width="1207" height="583" viewBox="0 0 1207 583" fill="none" xmlns="http://www.w3.org/2000/svg">
<path d="M114 69L84 39C82.7109 38.0009 81.1015 37.5064 79.4737 37.6091C77.8459 37.7119 76.3116 38.4049 75.1583 39.5582C74.005 40.7115 73.3119 42.2459 73.2092 43.8737C73.1064 45.5015 73.6009 47.1108 74.6 48.4L61.8 61.2L91.8001 91.2L104.6 78.4C105.875 79.5134 107.524 80.103 109.216 80.0504C110.907 79.9977 112.517 79.3067 113.72 78.1162C114.923 76.9257 115.631 75.324 115.701 73.6329C115.772 71.9417 115.2 70.2866 114.1 69H114Z" fill="#E1E8ED"/>
<path d="M79.3 37H29.3C22 37 16 43 16 50.3V143.7C16 151 22 157 29.3 157H102.7C110 157 116 151 116 143.7V73.7H86C84.2616 73.5829 82.6246 72.8395 81.3926 71.6074C80.1605 70.3754 79.4171 68.7384 79.3 67V37Z" fill="#CCD6DD"/>
<path d="M79.3001 37H72.7V67C72.7 74.4 78.7 80.3 86 80.3H116V73.7H86C84.2616 73.5829 82.6246 72.8395 81.3926 71.6074C80.1606 70.3754 79.4171 68.7384 79.3001 67V37ZM102.7 93C102.7 95.2 101.2 97 99.3 97H32.7001C30.8001 97 29.3 95.2 29.3 93C29.3 90.8 30.8001 89 32.7001 89H99.3C101.2 89 102.7 90.8 102.7 93ZM102.7 106.3C102.7 108.5 101.2 110.3 99.3 110.3H32.7001C30.8001 110.3 29.3 108.5 29.3 106.3C29.3 104.1 30.8001 102.3 32.7001 102.3H99.3C101.2 102.3 102.7 104.1 102.7 106.3ZM102.7 119.7C102.7 121.9 101.2 123.7 99.3 123.7H32.7001C30.8001 123.7 29.3 121.9 29.3 119.7C29.3 117.5 30.8001 115.7 32.7001 115.7H99.3C101.2 115.7 102.7 117.5 102.7 119.7ZM102.7 133C102.7 135.2 101.2 137 99.3 137H32.7001C30.8001 137 29.3 135.2 29.3 133C29.3 130.8 30.8001 129 32.7001 129H99.3C101.2 129 102.7 130.8 102.7 133Z" fill="#99AAB5"/>
<g opacity="0.6">
<path d="M228 69L198 39C196.711 38.0009 195.101 37.5064 193.474 37.6091C191.846 37.7119 190.312 38.4049 189.158 39.5582C188.005 40.7115 187.312 42.2459 187.209 43.8737C187.106 45.5015 187.601 47.1108 188.6 48.4L175.8 61.2L205.8 91.2L218.6 78.4C219.889 79.3991 221.499 79.8937 223.126 79.7909C224.754 79.6881 226.289 78.9951 227.442 77.8418C228.595 76.6885 229.288 75.1541 229.391 73.5263C229.494 71.8986 228.999 70.2892 228 69Z" fill="#E1E8ED"/>
<path d="M193.3 37H143.3C136 37 130 43 130 50.3V143.7C130 151 136 157 143.3 157H216.7C224 157 230 151 230 143.7V73.7H200C198.262 73.5829 196.625 72.8395 195.393 71.6074C194.161 70.3754 193.417 68.7384 193.3 67V37Z" fill="#CCD6DD"/>
<path d="M193.3 37H186.7V67C186.7 74.4 192.7 80.3 200 80.3H230V73.7H200C198.262 73.5829 196.625 72.8395 195.393 71.6074C194.161 70.3754 193.417 68.7384 193.3 67V37ZM216.7 93C216.7 95.2 215.2 97 213.3 97H146.7C144.8 97 143.3 95.2 143.3 93C143.3 90.8 144.8 89 146.7 89H213.3C215.2 89 216.7 90.8 216.7 93ZM216.7 106.3C216.7 108.5 215.2 110.3 213.3 110.3H146.7C144.8 110.3 143.3 108.5 143.3 106.3C143.3 104.1 144.8 102.3 146.7 102.3H213.3C215.2 102.3 216.7 104.1 216.7 106.3ZM216.7 119.7C216.7 121.9 215.2 123.7 213.3 123.7H146.7C144.8 123.7 143.3 121.9 143.3 119.7C143.3 117.5 144.8 115.7 146.7 115.7H213.3C215.2 115.7 216.7 117.5 216.7 119.7ZM216.7 133C216.7 135.2 215.2 137 213.3 137H146.7C144.8 137 143.3 135.2 143.3 133C143.3 130.8 144.8 129 146.7 129H213.3C215.2 129 216.7 130.8 216.7 133Z" fill="#99AAB5"/>
</g>
<path d="M198.5 176.8H35.6C29.0831 176.8 23.8 182.061 23.8 188.55C23.8 195.039 29.0831 200.3 35.6 200.3H198.5C205.017 200.3 210.3 195.039 210.3 188.55C210.3 182.061 205.017 176.8 198.5 176.8Z" fill="#3D4251" stroke="#3D4251" stroke-width="3.5"/>
<path d="M176.4 58.7L163.4 45.6C163.026 45.2336 162.523 45.0283 162 45.0283C161.476 45.0283 160.974 45.2336 160.6 45.6L157.9 48.3L161.3 51.7C161.719 51.5283 162.18 51.4843 162.625 51.5736C163.069 51.663 163.477 51.8816 163.798 52.2022C164.118 52.5227 164.337 52.9308 164.426 53.3752C164.516 53.8196 164.472 54.2805 164.3 54.7L167.6 58C168.098 57.8348 168.638 57.8451 169.13 58.0292C169.622 58.2134 170.036 58.5602 170.303 59.0121C170.571 59.464 170.675 59.9938 170.6 60.5135C170.524 61.0331 170.273 61.5113 169.889 61.8686C169.504 62.2259 169.008 62.4408 168.485 62.4776C167.961 62.5143 167.44 62.3708 167.009 62.0707C166.578 61.7706 166.263 61.3322 166.116 60.8281C165.969 60.3241 165.998 59.7849 166.2 59.3L163.1 56.2V64.3L163.7 64.8C164.049 65.149 164.277 65.6011 164.35 66.0895C164.422 66.5778 164.336 67.0766 164.103 67.512C163.87 67.9474 163.503 68.2963 163.057 68.5071C162.61 68.7179 162.108 68.7794 161.623 68.6826C161.139 68.5858 160.699 68.3357 160.368 67.9694C160.037 67.6031 159.833 67.14 159.785 66.6485C159.738 66.157 159.85 65.6633 160.104 65.2404C160.359 64.8175 160.743 64.4878 161.2 64.3V56C160.9 56 160.7 55.8 160.4 55.5C159.8 54.9 159.6 53.9 159.9 53L156.5 49.6L147.5 58.6C147.163 58.9687 146.976 59.4503 146.976 59.95C146.976 60.4497 147.163 60.9313 147.5 61.3L160.7 74.4C161.4 75.2 162.7 75.2 163.4 74.4L176.4 61.4C177.2 60.6 177.2 59.4 176.4 58.7Z" fill="#F05133"/>
<path fill-rule="evenodd" clip-rule="evenodd" d="M47 45C38.7 45 32 51.4 32 59.4C32 65.7 36.3 71 42.3 73C43 73.1 43.3 72.7 43.3 72.3V69.6C39.5 70.3 38.5 68.7 38.3 67.9C38.1 67.5 37.3 66.2 36.7 65.9C36.2 65.6 35.4 64.9 36.7 64.9C37.8 64.9 38.7 65.9 39 66.4C40.3 68.6 42.5 68 43.3 67.6C43.3631 66.8294 43.7214 66.1129 44.3 65.6C41 65.3 37.5 64.1 37.5 58.6C37.5 57 38.1 55.7 39 54.7C38.5632 53.4565 38.6351 52.0908 39.2 50.9C39.2 50.9 40.4 50.6 43.2 52.4C45.6883 51.7243 48.3117 51.7243 50.8 52.4C53.7 50.5 54.9 50.9 54.9 50.9C55.4649 52.0908 55.5368 53.4565 55.1 54.7C56.1 55.7 56.6 57 56.6 58.6C56.6 64.1 53.1 65.3 49.8 65.6C50.3 66.1 50.8 67 50.8 68.3V72.3C50.8 72.7 51 73.1 51.8 73C57.8 71 62 65.7 62 59.4C62 51.4 55.3 45 47 45Z" fill="#1B1F23"/>
<path d="M552.5 533.8H422.6C416.083 533.8 410.8 539.061 410.8 545.55C410.8 552.039 416.083 557.3 422.6 557.3H552.5C559.017 557.3 564.3 552.039 564.3 545.55C564.3 539.061 559.017 533.8 552.5 533.8Z" fill="#3D4251" stroke="#3D4251" stroke-width="3.5"/>
<path d="M547 480.4C545.3 476.5 543.4 472.4 539 472.4H535C537.122 472.4 539.157 471.557 540.657 470.057C542.157 468.557 543 466.522 543 464.4V396C543 393.878 542.157 391.843 540.657 390.343C539.157 388.843 537.122 388 535 388H431C428.878 388 426.843 388.843 425.343 390.343C423.843 391.843 423 393.878 423 396V464.3C423 466.422 423.843 468.457 425.343 469.957C426.843 471.457 428.878 472.3 431 472.3H427C422.6 472.3 420.3 476.3 419 480.3L411 500C411 502.122 411.843 504.157 413.343 505.657C414.843 507.157 416.878 508 419 508H547C549.122 508 551.157 507.157 552.657 505.657C554.157 504.157 555 502.122 555 500L547 480.4Z" fill="#CCD6DD"/>
<path d="M411 500.3V500.7L411.7 505.9C413 511.2 415.9 514.7 419 514.7H547C551.3 514.7 554.8 508.3 555 500.3H411Z" fill="#9AAAB4"/>
<path d="M535 460.2C535 461.261 534.579 462.278 533.828 463.028C533.078 463.779 532.061 464.2 531 464.2H435C433.939 464.2 432.922 463.779 432.172 463.028C431.421 462.278 431 461.261 431 460.2V400C431 398.939 431.421 397.922 432.172 397.172C432.922 396.421 433.939 396 435 396H531C532.061 396 533.078 396.421 533.828 397.172C534.579 397.922 535 398.939 535 400V460.2Z" fill="#4CC0E6"/>
<path d="M542.6 488.2L539.6 479.5C538.6 477.6 537 476.1 534.8 476.1H431.4C429.2 476.1 427.8 477.8 426.8 480.3L424.1 488.2C423.1 490.6 425.9 492.2 428.1 492.2H458.4C458.4 492.2 462.1 492 462.8 489.8C463.6 487.2 464.4 483.3 464.6 482.6C464.9 481.6 466.2 480.4 468.1 480.4H502.4C504.4 480.4 505.4 481.4 505.6 482.7C505.8 483.5 506.9 487.3 507.4 489.8C507.8 492.1 512.3 492.2 512.3 492.2H538.6C540.8 492.2 543.5 490.3 542.6 488.2Z" fill="#AEBBC1"/>
<path d="M500.5 498.8H469.4C467.9 498.8 467.2 497.2 467.4 495.6L469 486.2C469 485.4 470 484.4 471 484.4H499.1C500.3 484.4 501.1 485.2 501.3 486.7L502.6 496C502.6 497.5 501.9 498.8 500.5 498.8Z" fill="#9AAAB4"/>
<path d="M452.143 436.406L449.057 424.961L445.932 436.406C445.689 437.274 445.494 437.899 445.346 438.281C445.207 438.655 444.96 438.993 444.604 439.297C444.248 439.592 443.775 439.74 443.185 439.74C442.707 439.74 442.313 439.648 442 439.466C441.696 439.293 441.449 439.045 441.258 438.724C441.067 438.394 440.911 438.008 440.789 437.565C440.668 437.114 440.559 436.697 440.464 436.315L437.286 423.464C437.095 422.717 437 422.148 437 421.758C437 421.263 437.174 420.846 437.521 420.508C437.868 420.169 438.298 420 438.81 420C439.513 420 439.986 420.226 440.229 420.677C440.472 421.128 440.685 421.784 440.867 422.643L443.367 433.789L446.167 423.359C446.375 422.561 446.562 421.953 446.727 421.536C446.892 421.12 447.161 420.76 447.534 420.456C447.907 420.152 448.415 420 449.057 420C449.708 420 450.212 420.161 450.568 420.482C450.932 420.794 451.184 421.137 451.323 421.51C451.462 421.884 451.648 422.5 451.883 423.359L454.708 433.789L457.208 422.643C457.33 422.062 457.443 421.606 457.547 421.276C457.66 420.946 457.846 420.651 458.107 420.391C458.376 420.13 458.762 420 459.266 420C459.769 420 460.194 420.169 460.542 420.508C460.898 420.838 461.076 421.254 461.076 421.758C461.076 422.114 460.98 422.682 460.789 423.464L457.612 436.315C457.395 437.183 457.213 437.821 457.065 438.229C456.926 438.628 456.683 438.98 456.336 439.284C455.997 439.588 455.516 439.74 454.891 439.74C454.3 439.74 453.827 439.592 453.471 439.297C453.115 439.002 452.868 438.672 452.729 438.307C452.59 437.934 452.395 437.3 452.143 436.406Z" fill="#F6F6F6"/>
<path d="M472.651 433.385H465.698C465.707 434.193 465.867 434.905 466.18 435.521C466.501 436.137 466.922 436.602 467.443 436.914C467.972 437.227 468.554 437.383 469.188 437.383C469.613 437.383 469.999 437.335 470.346 437.24C470.702 437.136 471.045 436.979 471.375 436.771C471.705 436.554 472.009 436.324 472.287 436.081C472.564 435.838 472.925 435.508 473.367 435.091C473.55 434.935 473.81 434.857 474.149 434.857C474.513 434.857 474.808 434.957 475.034 435.156C475.26 435.356 475.372 435.638 475.372 436.003C475.372 436.324 475.247 436.701 474.995 437.135C474.743 437.561 474.361 437.973 473.849 438.372C473.346 438.763 472.708 439.089 471.935 439.349C471.171 439.609 470.29 439.74 469.292 439.74C467.009 439.74 465.234 439.089 463.966 437.787C462.699 436.484 462.065 434.718 462.065 432.487C462.065 431.437 462.221 430.465 462.534 429.57C462.846 428.668 463.302 427.895 463.901 427.253C464.5 426.61 465.238 426.12 466.115 425.781C466.991 425.434 467.964 425.26 469.031 425.26C470.42 425.26 471.609 425.556 472.599 426.146C473.597 426.728 474.344 427.483 474.839 428.412C475.333 429.34 475.581 430.287 475.581 431.25C475.581 432.144 475.325 432.726 474.813 432.995C474.3 433.255 473.58 433.385 472.651 433.385ZM465.698 431.367H472.143C472.057 430.152 471.727 429.245 471.154 428.646C470.589 428.038 469.843 427.734 468.914 427.734C468.029 427.734 467.3 428.043 466.727 428.659C466.162 429.267 465.82 430.169 465.698 431.367Z" fill="#F6F6F6"/>
<path d="M487.56 437.734C486.701 438.403 485.867 438.906 485.06 439.245C484.261 439.575 483.363 439.74 482.365 439.74C481.453 439.74 480.65 439.562 479.956 439.206C479.27 438.841 478.741 438.351 478.367 437.734C477.994 437.118 477.807 436.45 477.807 435.729C477.807 434.757 478.116 433.928 478.732 433.242C479.348 432.557 480.195 432.096 481.271 431.862C481.497 431.81 482.057 431.693 482.951 431.51C483.845 431.328 484.609 431.163 485.242 431.016C485.885 430.859 486.579 430.673 487.326 430.456C487.282 429.518 487.091 428.833 486.753 428.399C486.423 427.956 485.733 427.734 484.682 427.734C483.78 427.734 483.098 427.86 482.638 428.112C482.187 428.364 481.796 428.741 481.466 429.245C481.145 429.748 480.915 430.083 480.776 430.247C480.646 430.404 480.359 430.482 479.917 430.482C479.517 430.482 479.17 430.356 478.875 430.104C478.589 429.844 478.445 429.514 478.445 429.115C478.445 428.49 478.667 427.882 479.109 427.292C479.552 426.701 480.242 426.215 481.18 425.833C482.117 425.451 483.285 425.26 484.682 425.26C486.245 425.26 487.473 425.447 488.367 425.82C489.261 426.185 489.891 426.767 490.255 427.565C490.629 428.364 490.815 429.423 490.815 430.742C490.815 431.576 490.811 432.283 490.802 432.865C490.802 433.446 490.798 434.093 490.789 434.805C490.789 435.473 490.898 436.172 491.115 436.901C491.34 437.622 491.453 438.086 491.453 438.294C491.453 438.659 491.28 438.993 490.932 439.297C490.594 439.592 490.208 439.74 489.774 439.74C489.409 439.74 489.049 439.57 488.693 439.232C488.337 438.885 487.959 438.386 487.56 437.734ZM487.326 432.591C486.805 432.782 486.045 432.986 485.047 433.203C484.057 433.412 483.372 433.568 482.99 433.672C482.608 433.767 482.243 433.963 481.896 434.258C481.549 434.544 481.375 434.948 481.375 435.469C481.375 436.007 481.579 436.467 481.987 436.849C482.395 437.222 482.929 437.409 483.589 437.409C484.292 437.409 484.938 437.257 485.529 436.953C486.128 436.641 486.566 436.241 486.844 435.755C487.165 435.217 487.326 434.332 487.326 433.099V432.591Z" fill="#F6F6F6"/>
<path d="M505.867 435.091C505.867 436.072 505.628 436.914 505.151 437.617C504.674 438.312 503.966 438.841 503.029 439.206C502.1 439.562 500.967 439.74 499.63 439.74C498.354 439.74 497.26 439.544 496.349 439.154C495.437 438.763 494.765 438.277 494.331 437.695C493.897 437.105 493.68 436.515 493.68 435.925C493.68 435.534 493.819 435.2 494.096 434.922C494.374 434.644 494.726 434.505 495.151 434.505C495.524 434.505 495.811 434.596 496.01 434.779C496.21 434.961 496.401 435.217 496.583 435.547C496.948 436.181 497.382 436.654 497.885 436.966C498.398 437.279 499.092 437.435 499.969 437.435C500.681 437.435 501.262 437.279 501.714 436.966C502.174 436.645 502.404 436.28 502.404 435.872C502.404 435.247 502.165 434.792 501.688 434.505C501.219 434.219 500.442 433.945 499.357 433.685C498.133 433.381 497.135 433.064 496.362 432.734C495.598 432.396 494.986 431.953 494.526 431.406C494.066 430.859 493.836 430.187 493.836 429.388C493.836 428.676 494.049 428.004 494.474 427.37C494.899 426.736 495.524 426.233 496.349 425.859C497.182 425.477 498.185 425.286 499.357 425.286C500.277 425.286 501.102 425.382 501.831 425.573C502.569 425.764 503.181 426.02 503.667 426.341C504.161 426.662 504.535 427.018 504.786 427.409C505.047 427.8 505.177 428.181 505.177 428.555C505.177 428.963 505.038 429.297 504.76 429.557C504.491 429.818 504.105 429.948 503.602 429.948C503.237 429.948 502.924 429.844 502.664 429.635C502.412 429.427 502.122 429.115 501.792 428.698C501.523 428.351 501.206 428.073 500.841 427.865C500.477 427.656 499.982 427.552 499.357 427.552C498.714 427.552 498.181 427.691 497.755 427.969C497.33 428.238 497.117 428.576 497.117 428.984C497.117 429.358 497.273 429.666 497.586 429.909C497.898 430.143 498.319 430.339 498.849 430.495C499.378 430.651 500.108 430.842 501.036 431.068C502.139 431.337 503.037 431.658 503.732 432.031C504.435 432.405 504.964 432.847 505.32 433.359C505.685 433.863 505.867 434.44 505.867 435.091Z" fill="#F6F6F6"/>
<path d="M518.797 433.385H511.844C511.852 434.193 512.013 434.905 512.326 435.521C512.647 436.137 513.068 436.602 513.589 436.914C514.118 437.227 514.7 437.383 515.333 437.383C515.759 437.383 516.145 437.335 516.492 437.24C516.848 437.136 517.191 436.979 517.521 436.771C517.851 436.554 518.155 436.324 518.432 436.081C518.71 435.838 519.07 435.508 519.513 435.091C519.695 434.935 519.956 434.857 520.294 434.857C520.659 434.857 520.954 434.957 521.18 435.156C521.405 435.356 521.518 435.638 521.518 436.003C521.518 436.324 521.392 436.701 521.141 437.135C520.889 437.561 520.507 437.973 519.995 438.372C519.491 438.763 518.853 439.089 518.081 439.349C517.317 439.609 516.436 439.74 515.438 439.74C513.155 439.74 511.379 439.089 510.112 437.787C508.845 436.484 508.211 434.718 508.211 432.487C508.211 431.437 508.367 430.465 508.68 429.57C508.992 428.668 509.448 427.895 510.047 427.253C510.646 426.61 511.384 426.12 512.26 425.781C513.137 425.434 514.109 425.26 515.177 425.26C516.566 425.26 517.755 425.556 518.745 426.146C519.743 426.728 520.49 427.483 520.984 428.412C521.479 429.34 521.727 430.287 521.727 431.25C521.727 432.144 521.47 432.726 520.958 432.995C520.446 433.255 519.726 433.385 518.797 433.385ZM511.844 431.367H518.289C518.202 430.152 517.872 429.245 517.299 428.646C516.735 428.038 515.989 427.734 515.06 427.734C514.174 427.734 513.445 428.043 512.872 428.659C512.308 429.267 511.965 430.169 511.844 431.367Z" fill="#F6F6F6"/>
<path d="M524.721 437.578V422.161C524.721 421.45 524.878 420.911 525.19 420.547C525.511 420.182 525.941 420 526.479 420C527.017 420 527.451 420.182 527.781 420.547C528.111 420.903 528.276 421.441 528.276 422.161V437.578C528.276 438.299 528.107 438.841 527.768 439.206C527.438 439.562 527.009 439.74 526.479 439.74C525.958 439.74 525.533 439.553 525.203 439.18C524.882 438.806 524.721 438.273 524.721 437.578Z" fill="#F6F6F6"/>
<path d="M862.5 502.8H802.6C796.083 502.8 790.8 508.061 790.8 514.55C790.8 521.039 796.083 526.3 802.6 526.3H862.5C869.017 526.3 874.3 521.039 874.3 514.55C874.3 508.061 869.017 502.8 862.5 502.8Z" fill="#3D4251" stroke="#3D4251" stroke-width="3.5"/>
<path d="M787 491C787 491 775 491 775 479V395C775 395 775 383 787 383H865C868 383 871 386 871 386L880 395C880 395 883 398 883 401V479C883 479 883 491 871 491H787Z" fill="#785F7D"/>
<path d="M790 441.8V438.2C790 438.2 790 431 796 431H859C865 431 865 438.2 865 438.2V441.8H790Z" fill="#EED355"/>
<path d="M790 479V440H865V479C865 479 865 485 859 485H796C790 485 790 479 790 479ZM805 392C805 392 805 389 808 389H862C865.1 389 865 392 865 392V422C865 422 865 425 862 425H808C808 425 805 425 805 422V392ZM841 422H856V392H841V422Z" fill="#E1E8ED"/>
<path d="M1180.5 502.8H1083.6C1077.08 502.8 1071.8 508.061 1071.8 514.55C1071.8 521.039 1077.08 526.3 1083.6 526.3H1180.5C1187.02 526.3 1192.3 521.039 1192.3 514.55C1192.3 508.061 1187.02 502.8 1180.5 502.8Z" fill="#3D4251" stroke="#3D4251" stroke-width="3.5"/>
<path d="M1089.3 432.2L1111.9 412.3L1157.3 415.2L1160 460.5L1140.3 483.2C1140.3 483.2 1140.3 466.2 1123.3 449.2C1106.3 432.2 1089.3 432.2 1089.3 432.2Z" fill="#A0041E"/>
<path d="M1089.2 483.2C1089.2 483.2 1089.1 460.6 1097.7 452C1106.2 443.4 1129 444 1129 444C1129 444 1129 466.2 1120.4 474.7C1112 483.2 1089.2 483.2 1089.2 483.2Z" fill="#FFAC33"/>
<path d="M1111.9 471.8C1118.14 471.8 1123.2 466.741 1123.2 460.5C1123.2 454.259 1118.14 449.2 1111.9 449.2C1105.66 449.2 1100.6 454.259 1100.6 460.5C1100.6 466.741 1105.66 471.8 1111.9 471.8Z" fill="#FFCC4D"/>
<path d="M1188.4 384C1188.4 384 1160.1 384 1126.1 412.3C1109.1 426.5 1109.1 452 1114.8 457.7C1120.4 463.3 1145.9 463.3 1160.1 446.3C1188.4 412.3 1188.4 384 1188.4 384Z" fill="#4CC0E6"/>
<path d="M1163 398.2C1158.5 398.2 1154.5 400.8 1152.6 404.9C1154.7 403.929 1157.05 403.625 1159.32 404.031C1161.6 404.436 1163.7 405.53 1165.33 407.166C1166.97 408.801 1168.06 410.899 1168.47 413.177C1168.87 415.454 1168.57 417.801 1167.6 419.9C1170.02 418.873 1172.01 417.033 1173.22 414.697C1174.43 412.361 1174.79 409.676 1174.23 407.104C1173.68 404.533 1172.24 402.236 1170.17 400.611C1168.1 398.985 1165.53 398.133 1162.9 398.2H1163Z" fill="#3D4251"/>
<path d="M1109.1 463.3C1109.1 463.3 1109.1 452 1111.9 449.2C1114.8 446.3 1148.8 418 1151.6 420.8C1154.4 423.7 1126.1 457.7 1123.3 460.5C1120.4 463.3 1109.1 463.3 1109.1 463.3Z" fill="#A0041E"/>
<path d="M869.5 60C866.656 59.986 863.826 60.3903 861.1 61.2V60C861.007 54.0154 858.77 48.2629 854.795 43.7879C850.82 39.3129 845.372 36.4123 839.44 35.6133C833.509 34.8144 827.487 36.17 822.47 39.4339C817.453 42.6978 813.773 47.6534 812.1 53.4C808.3 51.8506 804.176 51.2644 800.095 51.6936C796.014 52.1227 792.102 53.554 788.707 55.8599C785.313 58.1658 782.541 61.275 780.638 64.9108C778.735 68.5467 777.76 72.5965 777.8 76.7C777.835 82.7369 780.054 88.5571 784.046 93.0857C788.038 97.6144 793.534 100.545 799.519 101.338C805.503 102.13 811.573 100.73 816.606 97.3961C821.639 94.0622 825.295 89.0197 826.9 83.2C831.275 84.9643 836.06 85.4499 840.7 84.6C840.5 86.1 840.3 87.6 840.3 89.2C840.3 94.9752 842.013 100.621 845.221 105.423C848.43 110.225 852.99 113.967 858.326 116.177C863.661 118.387 869.532 118.966 875.197 117.839C880.861 116.712 886.064 113.931 890.148 109.848C894.231 105.764 897.012 100.561 898.139 94.8966C899.266 89.2324 898.687 83.3612 896.477 78.0256C894.267 72.69 890.525 68.1296 885.723 64.9211C880.921 61.7126 875.275 60 869.5 60Z" fill="#D6EEFF"/>
<path d="M886.2 118.3C884.2 118.3 882.4 118.7 880.6 119.2C882.072 115.412 882.277 111.249 881.184 107.335C880.091 103.421 877.76 99.9667 874.539 97.4891C871.318 95.0114 867.381 93.6441 863.318 93.5919C859.254 93.5398 855.283 94.8057 852 97.2C850.63 91.5159 847.452 86.43 842.944 82.7069C838.436 78.9838 832.841 76.8247 827.001 76.5541C821.16 76.2835 815.39 77.9161 810.557 81.2064C805.724 84.4967 802.089 89.2669 800.2 94.8C795.634 93.4335 790.828 93.063 786.107 93.7135C781.385 94.364 776.859 96.0205 772.832 98.5708C768.806 101.121 765.375 104.506 762.769 108.497C760.163 112.487 758.445 116.991 757.729 121.703C757.014 126.415 757.318 131.225 758.622 135.81C759.925 140.394 762.198 144.645 765.285 148.275C768.373 151.906 772.204 154.831 776.519 156.854C780.835 158.877 785.534 159.95 790.3 160H886.2C891.73 160 897.033 157.803 900.943 153.893C904.853 149.983 907.05 144.68 907.05 139.15C907.05 133.62 904.853 128.317 900.943 124.407C897.033 120.497 891.73 118.3 886.2 118.3Z" fill="#4CC0E6"/>
<path d="M896.5 175.8H757.6C751.083 175.8 745.8 181.061 745.8 187.55C745.8 194.039 751.083 199.3 757.6 199.3H896.5C903.017 199.3 908.3 194.039 908.3 187.55C908.3 181.061 903.017 175.8 896.5 175.8Z" fill="#3D4251" stroke="#3D4251" stroke-width="3.5"/>
<path d="M544.5 175.8H415.6C409.083 175.8 403.8 181.061 403.8 187.55C403.8 194.039 409.083 199.3 415.6 199.3H544.5C551.017 199.3 556.3 194.039 556.3 187.55C556.3 181.061 551.017 175.8 544.5 175.8Z" fill="#3D4251" stroke="#3D4251" stroke-width="3.5"/>
<path d="M542.2 97.2C542.2 105.6 535.4 104.8 527 104.8H428.2C419.8 104.8 413 105.6 413 97.2L420.6 51.6C421.1 44.3 427.4 36.4 435.8 36.4H519.4C527.8 36.4 533.8 44.8 534.6 51.6L542.2 97.2Z" fill="#67757F"/>
<path d="M515.6 70.6C515.6 74.8 512.2 78.2 508 78.2H447.2C445.184 78.2 443.251 77.3993 441.826 75.974C440.401 74.5487 439.6 72.6156 439.6 70.6V40.2C439.6 36 443 32.6 447.2 32.6H508C512.2 32.6 515.6 36 515.6 40.2V70.6Z" fill="#CCD6DD"/>
<path d="M523.2 85.8001C523.2 90.0001 519.8 93.4001 515.6 93.4001H439.6C437.584 93.4001 435.651 92.5993 434.226 91.1741C432.801 89.7488 432 87.8157 432 85.8001V55.4001C432 51.2001 435.4 47.8 439.6 47.8H515.6C519.8 47.8 523.2 51.2001 523.2 55.4001V85.8001Z" fill="#E1E8ED"/>
<path d="M530.8 101C530.8 105.2 527.4 108.6 523.2 108.6H432C429.984 108.6 428.051 107.799 426.626 106.374C425.201 104.949 424.4 103.016 424.4 101V70.6C424.4 66.4 427.8 63 432 63H523.2C527.4 63 530.8 66.4 530.8 70.6V101Z" fill="#F5F8FA"/>
<path d="M542.2 139C542.2 147.4 535.4 154.2 527 154.2H428.2C419.8 154.2 413 147.4 413 139V97.2C413 88.8 419.8 82 428.2 82H527C535.4 82 542.2 88.8 542.2 97.2V139Z" fill="#9AAAB4"/>
<path d="M492.8 25H473.8C471.784 25 469.851 25.8007 468.426 27.226C467.001 28.6513 466.2 30.5844 466.2 32.6V36.4H481.4C485.6 36.4 489 39.8 489 44H492.8C497 44 500.4 40.6 500.4 36.4V32.6C500.4 28.4 497 25 492.8 25Z" fill="#FCAB40"/>
<path d="M477.6 40.2H458.6C456.584 40.2 454.651 41.0007 453.226 42.4259C451.801 43.8512 451 45.7843 451 47.7999V51.5999H466.2C470.4 51.5999 473.8 55 473.8 59.2H477.6C481.8 59.2 485.2 55.7999 485.2 51.5999V47.7999C485.2 43.5999 481.8 40.2 477.6 40.2Z" fill="#5DADEC"/>
<path d="M470 66.8C470 71 466.6 74.4 462.4 74.4H443.4C441.384 74.4 439.451 73.5993 438.026 72.174C436.601 70.7488 435.8 68.8157 435.8 66.8V63C435.8 58.8 439.2 55.4 443.4 55.4H462.4C466.6 55.4 470 58.8 470 63V66.8Z" fill="#E75A70"/>
<path d="M504.2 127.6C504.2 131.8 500.8 135.2 496.6 135.2H458.6C457.602 135.2 456.614 135.003 455.692 134.621C454.77 134.24 453.932 133.68 453.226 132.974C452.52 132.268 451.96 131.43 451.579 130.508C451.197 129.586 451 128.598 451 127.6V108.6C451 104.4 454.4 101 458.6 101H496.6C500.8 101 504.2 104.4 504.2 108.6V127.6Z" fill="#67757F"/>
<path d="M496.6 123.8C496.6 125.9 494.9 127.6 492.8 127.6H462.4C461.392 127.6 460.426 127.2 459.713 126.487C459 125.774 458.6 124.808 458.6 123.8V112.4C458.6 110.3 460.3 108.6 462.4 108.6H492.8C494.9 108.6 496.6 110.3 496.6 112.4V123.8Z" fill="#E1E8ED"/>
<path d="M779.3 240.8H770L782 217L794 240.8H785.3V359.3H779.3V240.8ZM876.8 336.2H886L874 360L862 336.2H870.8V217.7H876.8V336.2Z" fill="#95AAB6"/>
<path d="M481.8 336.2H491L479 360L467 336.2H475.7V217.7H481.7V336.2H481.8Z" fill="#95AAB6"/>
<path d="M712.7 439.8V430.5L736.5 442.5L712.7 454.5V445.8H572.2V439.8H712.7Z" fill="#95AAB6"/>
<path d="M1020.7 440.8V430.5L1044.5 442.5L1020.7 454.5V446.8H934.2V440.8H1020.7Z" fill="#95AAB6"/>
<path d="M361 438.6V430L385 442L361 454V444.6H101.4V444.2H101.2V218H107.2V438.6H361Z" fill="#95AAB6"/>
<path d="M251 421H188C181.373 421 176 426.373 176 433V450C176 456.627 181.373 462 188 462H251C257.627 462 263 456.627 263 450V433C263 426.373 257.627 421 251 421Z" fill="#E0E9EE" stroke="#95AAB6" stroke-width="5" stroke-linejoin="round"/>
<path d="M665 422H622C615.373 422 610 427.373 610 434V451C610 457.627 615.373 463 622 463H665C671.627 463 677 457.627 677 451V434C677 427.373 671.627 422 665 422Z" fill="#E0E9EE" stroke="#95AAB6" stroke-width="5" stroke-linejoin="round"/>
<path d="M809 264H755C748.373 264 743 269.373 743 276V293C743 299.627 748.373 305 755 305H809C815.627 305 821 299.627 821 293V276C821 269.373 815.627 264 809 264Z" fill="#E0E9EE" stroke="#95AAB6" stroke-width="5" stroke-linejoin="round"/>
<path d="M895 264H852C845.373 264 840 269.373 840 276V293C840 299.627 845.373 305 852 305H895C901.627 305 907 299.627 907 293V276C907 269.373 901.627 264 895 264Z" fill="#E0E9EE" stroke="#95AAB6" stroke-width="5" stroke-linejoin="round"/>
<path d="M517 264H442C435.373 264 430 269.373 430 276V293C430 299.627 435.373 305 442 305H517C523.627 305 529 299.627 529 293V276C529 269.373 523.627 264 517 264Z" fill="#E0E9EE" stroke="#95AAB6" stroke-width="5" stroke-linejoin="round"/>
<path d="M35.3 182C35.9 182 36.5 182.1 37 182.3C37.6 182.5 38.0001 182.8 38.4001 183.1C38.8001 183.5 39.1 183.9 39.3 184.4C39.5 184.8 39.6 185.4 39.6 186C39.6 186.6 39.5 187.1 39.3 187.6C39.1 188.1 38.8 188.5 38.3 188.8C37.9221 189.148 37.4807 189.419 37 189.6C36.5 189.8 36 189.9 35.3 189.9H33V195H30.8V182H35.3ZM33 188H35.3C35.8276 187.993 36.3308 187.777 36.7001 187.4C37.1001 187.1 37.3 186.6 37.3 186C37.3099 185.722 37.2616 185.445 37.1582 185.187C37.0549 184.928 36.8989 184.695 36.7001 184.5C36.3308 184.123 35.8276 183.908 35.3 183.9H33V188ZM43.6 185.1V186.8H43.7001C43.9001 186.2 44.2001 185.8 44.7001 185.4C45.1001 185.1 45.7 184.9 46.5 184.9C47.5 184.9 48.4 185.2 49 185.9C49.6 186.6 49.9001 187.5 49.9001 188.6V189.4H47.5V188.8C47.5195 188.286 47.3404 187.785 47 187.4C46.6308 187.023 46.1276 186.808 45.6 186.8C45 186.8 44.6001 187 44.2001 187.4C43.9001 187.7 43.7001 188.2 43.7001 188.8V195H41.5V185.1H43.5H43.6ZM55.5 195.1C54.8 195.1 54.2001 195.1 53.7001 194.9C53.1839 194.731 52.7076 194.459 52.3 194.1C51.9 193.7 51.7 193.3 51.5 192.9C51.257 192.4 51.1208 191.855 51.1 191.3V188.8C51.1 188.2 51.2 187.7 51.5 187.2C51.6975 186.726 51.9969 186.3 52.3771 185.955C52.7573 185.609 53.209 185.351 53.7001 185.2C54.2001 185 54.8 184.9 55.5 184.9C56.1 184.9 56.7001 185 57.2001 185.2C57.6911 185.351 58.1428 185.609 58.523 185.955C58.9032 186.3 59.2026 186.726 59.4001 187.2C59.7001 187.7 59.8 188.2 59.8 188.8V191.3C59.8 191.8 59.7001 192.3 59.4001 192.9C59.2026 193.374 58.9032 193.8 58.523 194.145C58.1428 194.491 57.6911 194.749 57.2001 194.9C56.7001 195.1 56.2001 195.2 55.4001 195.2L55.5 195.1ZM53.4001 191.3C53.4001 191.9 53.6001 192.3 53.9001 192.7C54.3001 193 54.9 193.2 55.5 193.2C55.7709 193.223 56.0437 193.191 56.3016 193.105C56.5595 193.019 56.7971 192.881 57 192.7C57.3 192.3 57.5 191.9 57.5 191.3V188.8C57.5 188.2 57.3 187.8 57 187.4C56.7971 187.219 56.5595 187.081 56.3016 186.996C56.0437 186.91 55.7709 186.877 55.5 186.9C55.2131 186.863 54.9214 186.888 54.6451 186.974C54.3689 187.061 54.1147 187.206 53.9001 187.4C53.6001 187.8 53.4001 188.2 53.4001 188.8V191.3ZM61.8 196H64.5C65.1 196 65.5 195.8 65.8 195.5C66.2 195.1 66.3 194.7 66.3 194.2V187.2H62.3V185H68.6V194C68.6 194.6 68.5 195.2 68.3 195.7L67.5 196.9L66.3 197.7C65.8 197.9 65.3 198 64.6 198H61.8V196ZM65.8 182.4C65.8 182.1 66.0001 181.8 66.2001 181.6C66.4001 181.3 66.7001 181.2 67.2001 181.2H67.6C68 181.2 68.3 181.3 68.6 181.6C68.7 181.8 68.9001 182.1 68.9001 182.4C68.9001 182.8 68.7 183.1 68.5 183.3C68.3 183.5 68 183.6 67.5 183.6H67.1C66.7 183.6 66.4 183.5 66.1 183.3C66 183.1 65.8 182.8 65.8 182.4ZM71.8001 188.8C71.8001 188.2 71.8 187.7 72.1 187.2C72.3 186.7 72.5001 186.3 72.9001 186C73.3001 185.6 73.7001 185.4 74.3001 185.2C74.8001 185 75.3 184.9 76.1 184.9C76.7 184.9 77.3001 185 77.8001 185.2C78.3001 185.4 78.8 185.6 79.1 186C79.5 186.3 79.8 186.7 80.1 187.2L80.3001 188.8V190.6H74V191.3C74 191.9 74.2 192.4 74.5 192.8C74.9 193.2 75.4 193.4 76.1 193.4L77.3001 193.1C77.6001 193 77.9 192.8 78 192.5H80.2C80.2 192.9 80 193.3 79.7 193.6L78.7 194.5L77.5 195C76.4561 195.311 75.344 195.311 74.3001 195C73.7001 194.7 73.3001 194.5 72.9001 194.1C72.5001 193.8 72.3 193.4 72.1 192.9C71.857 192.4 71.7208 191.855 71.7 191.3V188.8H71.8001ZM74 189.1H78V188.8C78.023 188.529 77.9905 188.256 77.9046 187.999C77.8186 187.741 77.681 187.503 77.5 187.3C77.3055 187.101 77.0716 186.945 76.8133 186.842C76.555 186.739 76.2781 186.69 76 186.7C75.7056 186.676 75.4094 186.717 75.1327 186.821C74.8561 186.924 74.6059 187.088 74.4001 187.3C74.2191 187.503 74.0815 187.741 73.9955 187.999C73.9096 188.256 73.8771 188.529 73.9001 188.8V189.1H74ZM86.5 195.1C85.8 195.1 85.2 195.1 84.7 194.9C84.2 194.7 83.7001 194.5 83.3001 194.1C82.5464 193.362 82.1151 192.355 82.1 191.3V188.8C82.1 188.2 82.3 187.7 82.5 187.2C82.7 186.7 83.0001 186.3 83.3001 186C83.7076 185.641 84.1839 185.369 84.7 185.2C85.8026 184.827 86.9975 184.827 88.1 185.2C88.8018 185.432 89.4256 185.854 89.9022 186.419C90.3788 186.983 90.6896 187.669 90.8001 188.4H88.5C88.5 188 88.2001 187.6 87.8001 187.4C87.5001 187 87 186.9 86.5 186.9C85.8 186.9 85.3 187 85 187.4C84.6 187.7 84.4001 188.2 84.4001 188.8V191.3C84.4001 191.9 84.6 192.3 85 192.7C85.3 193.1 85.8 193.2 86.5 193.2C87 193.2 87.5001 193.1 87.8001 192.8C88.2001 192.5 88.4 192.1 88.5 191.7H90.8001L90.3001 193.1C89.8071 194.006 88.983 194.687 88 195C87.4867 195.187 86.9462 195.288 86.4001 195.3L86.5 195.1ZM92.1 185.1H94.8V182.1H97V185.1H100.8V187.1H97V191.9C97 192.3 97.1 192.5 97.3 192.7C97.5 192.9 97.8001 193 98.1001 193H100.6V195H98C97 195 96.3 194.7 95.7 194.2C95.4133 193.894 95.194 193.531 95.0562 193.135C94.9184 192.739 94.8652 192.318 94.9001 191.9V187.1H92.2V185.1H92.1ZM112.6 184.1V182.1H121.9V184.1H118.4V195H116V184.1H112.5H112.6ZM123.2 188.8C123.2 188.2 123.3 187.7 123.6 187.2C123.8 186.7 124 186.3 124.4 186C124.8 185.6 125.2 185.4 125.8 185.2C126.3 185 126.8 184.9 127.6 184.9C128.2 184.9 128.8 185 129.3 185.2C129.8 185.4 130.3 185.6 130.6 186C131 186.3 131.3 186.7 131.6 187.2L131.8 188.8V190.6H125.5V191.3C125.5 191.9 125.7 192.4 126 192.8C126.4 193.2 126.9 193.4 127.5 193.4C128 193.4 128.5 193.3 128.8 193.1C129.1 193 129.4 192.8 129.5 192.5H131.7C131.7 192.9 131.5 193.3 131.2 193.6L130.2 194.5L129 195C127.956 195.311 126.844 195.311 125.8 195C125.2 194.7 124.8 194.5 124.4 194.1C124 193.8 123.8 193.4 123.6 192.9C123.357 192.4 123.221 191.855 123.2 191.3V188.8ZM125.5 189.1H129.6V188.8C129.623 188.529 129.591 188.256 129.505 187.999C129.419 187.741 129.281 187.503 129.1 187.3C128.906 187.101 128.672 186.945 128.413 186.842C128.155 186.739 127.878 186.69 127.6 186.7C127.306 186.676 127.009 186.717 126.733 186.821C126.456 186.924 126.206 187.088 126 187.3C125.819 187.503 125.681 187.741 125.596 187.999C125.51 188.256 125.477 188.529 125.5 188.8V189.1ZM133.3 195V185.1H135.2V186.5H135.3C135.3 186 135.5 185.6 135.8 185.4C136.1 185.1 136.5 184.9 137 184.9C137.4 184.9 137.8 185.1 138 185.3C138.3 185.6 138.5 186 138.6 186.5H138.7C138.7 186 138.9 185.6 139.2 185.4C139.5 185.1 139.9 184.9 140.4 184.9C141 184.9 141.4 185.1 141.8 185.6C142.2 186 142.4 186.6 142.4 187.4V195H140.4V187.6C140.4 186.9 140.1 186.5 139.5 186.5C139.2 186.5 139 186.6 138.9 186.8C138.7 187 138.7 187.3 138.7 187.7V195H137V187.6C137 187.3 136.9 187 136.7 186.8C136.628 186.71 136.537 186.636 136.433 186.584C136.329 186.532 136.216 186.504 136.1 186.5C135.8 186.5 135.6 186.6 135.4 186.8L135.2 187.7V195H133.2H133.3ZM144.1 185.1H146.2V186.8H146.4C146.5 186.2 146.8 185.8 147.3 185.4C147.832 185.046 148.462 184.871 149.1 184.9C149.6 184.9 150.1 185 150.5 185.2C150.9 185.4 151.2 185.6 151.5 186C151.8 186.3 152 186.7 152.2 187.2C152.4 187.7 152.5 188.2 152.5 188.8V191.3C152.5 191.9 152.4 192.4 152.2 192.9C152 193.4 151.8 193.8 151.5 194.1C151.2 194.5 150.9 194.7 150.5 194.9L149.1 195.2C148.462 195.229 147.832 195.054 147.3 194.7C146.8 194.3 146.5 193.9 146.4 193.3H146.2V193.9C146.222 194.268 146.256 194.634 146.3 195V198H144.1V185.1ZM146.3 188.8V191.3C146.3 191.8 146.5 192.3 146.8 192.7C147.2 193 147.7 193.2 148.2 193.2C148.9 193.2 149.3 193 149.7 192.7C150 192.3 150.2 191.8 150.2 191.2V188.8C150.2 188.2 150 187.8 149.7 187.4C149.497 187.219 149.259 187.081 149.002 186.996C148.744 186.91 148.471 186.877 148.2 186.9C147.7 186.9 147.2 187 146.9 187.4C146.523 187.769 146.308 188.273 146.3 188.8ZM153.6 184V182H159V191.8C159 192.2 159.1 192.5 159.3 192.7C159.5 192.9 159.8 193 160.2 193H163.2V195H160C159 195 158.2 194.7 157.6 194.2C157 193.6 156.8 192.8 156.8 191.8V184H153.6ZM164.3 192.2C164.3 191.7 164.3 191.3 164.5 190.9L165.3 189.9C165.6 189.6 166.1 189.4 166.5 189.3C167 189.1 167.5 189 168.1 189H170.6V188.2C170.6 187.7 170.4 187.4 170.1 187.2C169.7 186.8 169.3 186.7 168.7 186.7C168.2 186.7 167.7 186.7 167.4 187C167.1 187.2 166.9 187.4 166.8 187.7H164.6C164.668 187.295 164.819 186.909 165.043 186.565C165.266 186.221 165.558 185.927 165.9 185.7L167.1 185.1L168.7 184.9C169.3 184.9 169.9 184.9 170.4 185.1C170.9 185.3 171.4 185.5 171.7 185.8C172.073 186.079 172.375 186.442 172.583 186.858C172.792 187.275 172.9 187.734 172.9 188.2V195H170.7V193H170.6C170.5 193.7 170.1 194.2 169.6 194.6C169 195 168.3 195.2 167.5 195.2C166.5 195.2 165.7 194.9 165.1 194.4C164.6 193.8 164.3 193.1 164.3 192.2ZM166.5 192C166.5 192.4 166.7 192.8 167 193C167.3 193.3 167.7 193.4 168.3 193.4C168.9 193.4 169.5 193.3 169.9 192.9C170.4 192.6 170.6 192.2 170.6 191.7V190.5H168.1C167.6 190.5 167.2 190.6 166.9 190.9C166.7 191.1 166.5 191.5 166.5 191.9V192ZM174.5 185.1H177.2V182.1H179.4V185.1H183.2V187.1H179.4V191.9C179.4 192.3 179.5 192.5 179.7 192.7C179.9 192.9 180.2 193 180.5 193H183V195H180.3C179.3 195 178.6 194.7 178 194.2C177.713 193.894 177.494 193.531 177.356 193.135C177.218 192.739 177.165 192.318 177.2 191.9V187.1H174.5V185.1ZM185 188.8C185 188.2 185.1 187.7 185.4 187.2C185.6 186.7 185.8 186.3 186.2 186C186.6 185.6 187 185.4 187.6 185.2C188.1 185 188.6 184.9 189.4 184.9C190 184.9 190.6 185 191.1 185.2C191.6 185.4 192.1 185.6 192.4 186C192.8 186.3 193.1 186.7 193.4 187.2L193.6 188.8V190.6H187.3V191.3C187.3 191.9 187.5 192.4 187.8 192.8C188.2 193.2 188.7 193.4 189.3 193.4C189.8 193.4 190.3 193.3 190.6 193.1C190.9 193 191.2 192.8 191.3 192.5H193.5C193.5 192.9 193.3 193.3 193 193.6L192 194.5L190.8 195C189.756 195.311 188.644 195.311 187.6 195C187 194.7 186.6 194.5 186.2 194.1C185.8 193.8 185.6 193.4 185.4 192.9C185.157 192.4 185.021 191.855 185 191.3V188.8ZM187.3 189.1H191.4V188.8C191.423 188.529 191.391 188.256 191.305 187.999C191.219 187.741 191.081 187.503 190.9 187.3C190.694 187.088 190.444 186.924 190.167 186.821C189.891 186.717 189.595 186.676 189.3 186.7C189.022 186.69 188.745 186.739 188.487 186.842C188.228 186.945 187.995 187.101 187.8 187.3C187.619 187.503 187.481 187.741 187.396 187.999C187.31 188.256 187.277 188.529 187.3 188.8V189.1ZM195.3 192.5H197.6C197.6 192.8 197.9 193 198.2 193.2C198.5 193.4 198.8 193.5 199.2 193.5H200C200.6 193.5 201 193.3 201.3 193.1C201.6 192.9 201.8 192.6 201.8 192.2C201.8 191.5 201.2 191.2 200.2 191L198.8 190.8C197.7 190.7 196.8 190.4 196.3 189.9C195.8 189.4 195.5 188.7 195.5 187.9C195.5 186.9 195.8 186.2 196.5 185.7C197.1 185.2 198.1 184.9 199.3 184.9H200C201.1 184.9 202 185.2 202.7 185.6C203.3 186.1 203.7 186.7 203.9 187.6H201.6C201.574 187.454 201.516 187.315 201.429 187.194C201.343 187.072 201.23 186.972 201.1 186.9C200.799 186.713 200.454 186.61 200.1 186.6H199.3C198.3 186.6 197.7 187 197.7 187.8C197.7 188.4 198.2 188.8 199.1 188.8L200.5 189.1C201.7 189.2 202.5 189.5 203.1 190.1C203.7 190.5 204 191.2 204 192.1C204 193.1 203.6 193.9 203 194.4C202.3 194.9 201.3 195.2 200 195.2H199.3C198.1 195.2 197.2 194.9 196.5 194.5C195.8 194 195.4 193.3 195.3 192.5ZM424.6 539V550H430.2V552H422.3V539H424.6ZM436.2 552.2C435.6 552.2 435 552.1 434.5 551.9C433.984 551.731 433.508 551.459 433.1 551.1C432.7 550.7 432.5 550.3 432.3 549.9C432.057 549.4 431.921 548.855 431.9 548.3V545.8C431.9 545.2 432 544.7 432.3 544.2C432.497 543.726 432.797 543.3 433.177 542.955C433.557 542.609 434.009 542.352 434.5 542.2C435 542 435.6 541.9 436.3 541.9C436.9 541.9 437.5 542 438 542.2C438.491 542.352 438.943 542.609 439.323 542.955C439.703 543.3 440.003 543.726 440.2 544.2C440.5 544.7 440.6 545.2 440.6 545.8V548.3C440.6 548.8 440.5 549.3 440.2 549.9C440.003 550.375 439.703 550.8 439.323 551.145C438.943 551.491 438.491 551.749 438 551.9C437.5 552.1 437 552.2 436.2 552.2ZM434.2 548.2C434.2 548.9 434.4 549.3 434.7 549.7C435.1 550 435.7 550.2 436.3 550.2C436.571 550.223 436.844 550.191 437.102 550.105C437.359 550.019 437.597 549.881 437.8 549.7C438.1 549.3 438.3 548.9 438.3 548.3V545.8C438.3 545.2 438.1 544.8 437.8 544.4C437.585 544.206 437.331 544.061 437.055 543.974C436.779 543.888 436.487 543.863 436.2 543.9C435.929 543.877 435.656 543.91 435.399 543.996C435.141 544.082 434.903 544.219 434.7 544.4C434.4 544.8 434.2 545.2 434.2 545.8V548.3V548.2ZM446.7 552.2C446 552.2 445.4 552.1 444.9 551.9C444.4 551.7 443.9 551.5 443.5 551.1C442.746 550.362 442.315 549.355 442.3 548.3V545.8C442.3 545.2 442.5 544.7 442.7 544.2C442.9 543.7 443.2 543.3 443.5 543C443.908 542.641 444.384 542.369 444.9 542.2C446.003 541.827 447.197 541.827 448.3 542.2C449.002 542.432 449.626 542.854 450.102 543.419C450.579 543.983 450.89 544.669 451 545.4H448.7C448.7 545 448.4 544.6 448 544.3C447.7 544 447.2 543.9 446.7 543.9C446 543.9 445.5 544 445.2 544.4C444.8 544.7 444.6 545.2 444.6 545.8V548.3C444.6 548.9 444.8 549.3 445.2 549.7C445.5 550.1 446 550.2 446.7 550.2C447.2 550.2 447.7 550.1 448 549.8C448.4 549.5 448.6 549.1 448.7 548.7H451L450.5 550.1C450.012 550.949 449.229 551.59 448.3 551.9C447.787 552.087 447.246 552.188 446.7 552.2ZM452.4 549.2C452.4 548.7 452.4 548.3 452.6 547.9L453.4 546.9C453.7 546.6 454.2 546.4 454.6 546.3C455.1 546.1 455.6 546 456.2 546H458.7V545.2C458.7 544.7 458.5 544.4 458.2 544.2C457.8 543.8 457.4 543.7 456.8 543.7C456.3 543.7 455.8 543.7 455.5 544C455.2 544.2 455 544.4 454.9 544.7H452.7C452.768 544.296 452.919 543.909 453.143 543.565C453.366 543.221 453.658 542.927 454 542.7L455.2 542.1L456.8 541.9C457.4 541.9 458 541.9 458.5 542.1C459 542.3 459.5 542.5 459.8 542.8C460.173 543.079 460.475 543.442 460.683 543.858C460.892 544.275 461 544.734 461 545.2V552H458.8V550H458.7C458.6 550.7 458.2 551.2 457.7 551.6C457.1 552 456.4 552.2 455.6 552.2C454.6 552.2 453.8 551.9 453.2 551.4C452.7 550.8 452.4 550.1 452.4 549.2ZM454.6 549C454.6 549.4 454.8 549.8 455.1 550C455.4 550.3 455.8 550.4 456.4 550.4C457 550.4 457.6 550.3 458 549.9C458.5 549.6 458.7 549.2 458.7 548.7V547.5H456.2C455.7 547.5 455.3 547.6 455.1 547.9C454.8 548.1 454.6 548.5 454.6 548.9V549ZM462.3 541V539H467.7V548.8C467.7 549.2 467.8 549.5 468 549.7C468.2 549.9 468.5 550 468.9 550H471.9V552H468.7C467.7 552 466.9 551.7 466.3 551.2C465.7 550.6 465.5 549.8 465.5 548.8V541H462.3ZM488.2 539C488.8 539 489.4 539.1 489.9 539.3C490.5 539.5 490.9 539.8 491.3 540.1C491.7 540.5 492 540.9 492.2 541.4C492.4 541.8 492.5 542.4 492.5 543C492.5 543.6 492.4 544.1 492.2 544.6C492 545.1 491.7 545.5 491.2 545.8C490.822 546.148 490.381 546.419 489.9 546.6C489.4 546.8 488.9 546.9 488.2 546.9H485.9V552H483.7V539H488.2ZM485.9 545H488.2C488.728 544.993 489.231 544.777 489.6 544.4C490 544.1 490.2 543.6 490.2 543C490.21 542.722 490.162 542.445 490.058 542.187C489.955 541.928 489.799 541.695 489.6 541.5C489.231 541.123 488.728 540.908 488.2 540.9H485.9V545ZM496.5 542.1V543.8H496.6C496.8 543.2 497.1 542.8 497.6 542.4C498 542.1 498.6 541.9 499.4 541.9C500.4 541.9 501.3 542.2 501.9 542.9C502.5 543.6 502.8 544.5 502.8 545.6V546.4H500.4V545.8C500.419 545.286 500.24 544.785 499.9 544.4C499.531 544.023 499.028 543.808 498.5 543.8C497.9 543.8 497.5 544 497.1 544.4C496.8 544.7 496.6 545.2 496.6 545.8V552H494.4V542.1H496.4H496.5ZM508.4 552.1C507.7 552.1 507.1 552.1 506.6 551.9C506.084 551.731 505.608 551.459 505.2 551.1C504.8 550.7 504.6 550.3 504.4 549.9C504.157 549.4 504.021 548.855 504 548.3V545.8C504 545.2 504.1 544.7 504.4 544.2C504.597 543.726 504.897 543.3 505.277 542.955C505.657 542.609 506.109 542.352 506.6 542.2C507.1 542 507.7 541.9 508.4 541.9C509 541.9 509.6 542 510.1 542.2C510.591 542.352 511.043 542.609 511.423 542.955C511.803 543.3 512.103 543.726 512.3 544.2C512.6 544.7 512.7 545.2 512.7 545.8V548.3C512.7 548.8 512.6 549.3 512.3 549.9C512.103 550.375 511.803 550.8 511.423 551.145C511.043 551.491 510.591 551.749 510.1 551.9C509.6 552.1 509.1 552.2 508.3 552.2L508.4 552.1ZM506.3 548.3C506.3 548.9 506.5 549.3 506.8 549.7C507.2 550 507.8 550.2 508.4 550.2C508.671 550.223 508.944 550.191 509.202 550.105C509.459 550.019 509.697 549.881 509.9 549.7C510.2 549.3 510.4 548.9 510.4 548.3V545.8C510.4 545.2 510.2 544.8 509.9 544.4C509.697 544.219 509.459 544.082 509.202 543.996C508.944 543.91 508.671 543.877 508.4 543.9C508.113 543.863 507.821 543.888 507.545 543.974C507.269 544.061 507.015 544.206 506.8 544.4C506.5 544.8 506.3 545.2 506.3 545.8V548.3ZM514.7 553H517.4C518 553 518.4 552.8 518.7 552.5C519.1 552.1 519.2 551.7 519.2 551.2V544.2H515.2V542H521.5V551C521.5 551.6 521.4 552.2 521.2 552.7L520.4 553.9L519.2 554.7C518.7 554.9 518.2 555 517.5 555H514.7V553ZM518.7 539.4C518.7 539.1 518.9 538.8 519.1 538.6C519.3 538.3 519.6 538.2 520.1 538.2H520.5C520.9 538.2 521.2 538.3 521.5 538.6C521.6 538.8 521.8 539.1 521.8 539.4C521.8 539.8 521.6 540.1 521.4 540.3C521.2 540.5 520.9 540.6 520.4 540.6H520C519.6 540.6 519.3 540.5 519 540.3C518.9 540.1 518.7 539.8 518.7 539.4ZM524.7 545.8C524.7 545.2 524.7 544.7 525 544.2C525.2 543.7 525.4 543.3 525.8 543C526.2 542.6 526.6 542.4 527.2 542.2C527.7 542 528.2 541.9 529 541.9C529.6 541.9 530.2 542 530.7 542.2C531.2 542.4 531.7 542.6 532 543C532.4 543.3 532.7 543.7 533 544.2L533.2 545.8V547.6H527V548.3C527 548.9 527.2 549.4 527.5 549.8C527.9 550.2 528.4 550.4 529.1 550.4L530.3 550.1C530.6 550 530.9 549.8 531 549.5H533.2C533.2 549.9 533 550.3 532.7 550.6L531.7 551.5L530.5 552C529.456 552.311 528.344 552.311 527.3 552C526.7 551.7 526.3 551.5 525.9 551.1C525.5 550.8 525.3 550.4 525.1 549.9C524.857 549.4 524.721 548.855 524.7 548.3V545.8ZM526.9 546.1H531V545.8C531.023 545.529 530.991 545.256 530.905 544.999C530.819 544.741 530.681 544.503 530.5 544.3C530.306 544.101 530.072 543.945 529.813 543.842C529.555 543.739 529.278 543.69 529 543.7C528.706 543.676 528.409 543.717 528.133 543.821C527.856 543.924 527.606 544.088 527.4 544.3C527.219 544.503 527.082 544.741 526.996 544.999C526.91 545.256 526.877 545.529 526.9 545.8V546.1ZM539.4 552.1C538.7 552.1 538.1 552.1 537.6 551.9C537.1 551.7 536.6 551.5 536.2 551.1C535.446 550.362 535.015 549.355 535 548.3V545.8C535 545.2 535.2 544.7 535.4 544.2C535.6 543.7 535.9 543.3 536.2 543C536.608 542.641 537.084 542.369 537.6 542.2C538.703 541.827 539.897 541.827 541 542.2C541.702 542.432 542.326 542.854 542.802 543.419C543.279 543.983 543.59 544.669 543.7 545.4H541.4C541.4 545 541.1 544.6 540.7 544.3C540.4 544 539.9 543.9 539.4 543.9C538.7 543.9 538.2 544 537.9 544.4C537.5 544.7 537.3 545.2 537.3 545.8V548.3C537.3 548.9 537.5 549.3 537.9 549.7C538.2 550.1 538.7 550.2 539.4 550.2C539.9 550.2 540.4 550.1 540.7 549.8C541.1 549.5 541.3 549.1 541.4 548.7H543.7L543.2 550.1C542.712 550.949 541.929 551.59 541 551.9C540.487 552.087 539.946 552.188 539.4 552.2V552.1ZM545 542.1H547.7V539.1H549.9V542.1H553.7V544.1H550V548.9C550 549.3 550.1 549.5 550.3 549.7C550.5 549.9 550.8 550 551.1 550H553.6V552H550.9C549.9 552 549.2 551.7 548.6 551.2C548.313 550.894 548.094 550.531 547.956 550.135C547.818 549.739 547.765 549.318 547.8 548.9V544.1H545V542.1ZM801.4 521.2C800.7 521.2 800.1 521.1 799.6 520.9C799 520.7 798.6 520.4 798.2 520.1C797.8 519.8 797.6 519.3 797.4 518.8C797.1 518.3 797 517.8 797 517.2V511.8C797 511.2 797.1 510.7 797.4 510.2C797.603 509.729 797.905 509.307 798.284 508.962C798.663 508.617 799.112 508.358 799.6 508.2C800.1 508 800.7 507.9 801.4 507.9C802 507.9 802.6 507.9 803.1 508.1C803.7 508.3 804.1 508.6 804.5 508.9C804.9 509.3 805.1 509.7 805.3 510.2C805.6 510.7 805.7 511.2 805.7 511.8V517.2C805.7 517.8 805.6 518.3 805.3 518.8C805.1 519.3 804.9 519.8 804.5 520.1C804.093 520.459 803.616 520.731 803.1 520.9C802.6 521.1 802 521.2 801.3 521.2H801.4ZM799.3 517.2C799.3 517.8 799.5 518.3 799.9 518.7C800.2 519 800.7 519.2 801.4 519.2C801.914 519.219 802.415 519.04 802.8 518.7C803.2 518.3 803.4 517.8 803.4 517.2V511.8C803.393 511.273 803.177 510.769 802.8 510.4C802.431 510.023 801.928 509.808 801.4 509.8C801.122 509.79 800.845 509.839 800.587 509.942C800.329 510.045 800.095 510.201 799.9 510.4C799.523 510.769 799.308 511.273 799.3 511.8V517.2ZM809.9 511.1V517.3C809.9 518.6 810.4 519.3 811.7 519.3C812.9 519.3 813.5 518.6 813.5 517.3V511H815.7V517.2C815.7 518.4 815.3 519.4 814.7 520.1C813.9 520.7 812.9 521.1 811.7 521.1C810.4 521.1 809.4 520.7 808.7 520.1C808 519.4 807.6 518.4 807.6 517.1V511H809.9V511.1ZM817.4 511.1H820.1V508.1H822.3V511.1H826.1V513.1H822.3V517.9C822.3 518.3 822.4 518.5 822.6 518.7C822.8 518.9 823.1 519 823.4 519H825.9V521H823.2C822.2 521 821.5 520.7 820.9 520.2C820.613 519.894 820.394 519.531 820.256 519.135C820.118 518.739 820.065 518.318 820.1 517.9V513.1H817.4V511.1ZM828.2 511.1H830.3V512.8H830.5C830.6 512.2 830.9 511.8 831.4 511.4C831.932 511.046 832.562 510.871 833.2 510.9C833.7 510.9 834.2 511 834.6 511.2C835 511.4 835.3 511.6 835.6 512C835.9 512.3 836.1 512.7 836.3 513.2C836.5 513.7 836.6 514.2 836.6 514.8V517.3C836.6 517.9 836.5 518.4 836.3 518.9C836.1 519.4 835.9 519.8 835.6 520.1C835.3 520.5 835 520.7 834.6 520.9L833.1 521.2C832.496 521.208 831.903 521.034 831.4 520.7C830.9 520.3 830.6 519.9 830.5 519.3H830.3V519.9C830.322 520.268 830.356 520.634 830.4 521V524H828.2V511.1ZM830.4 514.8V517.3C830.4 517.8 830.6 518.3 830.9 518.7C831.3 519 831.8 519.2 832.3 519.2C833 519.2 833.4 519 833.8 518.7C834.1 518.3 834.3 517.8 834.3 517.2V514.8C834.3 514.2 834.1 513.8 833.8 513.4C833.597 513.219 833.359 513.082 833.102 512.996C832.844 512.91 832.571 512.877 832.3 512.9C831.8 512.9 831.3 513 831 513.4C830.623 513.769 830.408 514.273 830.4 514.8ZM840.8 511.1V517.3C840.8 518.6 841.3 519.3 842.6 519.3C843.8 519.3 844.4 518.6 844.4 517.3V511H846.6V517.2C846.6 518.4 846.2 519.4 845.6 520.1C844.8 520.7 843.8 521.1 842.6 521.1C841.3 521.1 840.3 520.7 839.6 520.1C838.9 519.4 838.5 518.4 838.5 517.1V511H840.8V511.1ZM848.3 511.1H851V508.1H853.2V511.1H857V513.1H853.2V517.9C853.2 518.3 853.3 518.5 853.5 518.7C853.7 518.9 854 519 854.3 519H856.8V521H854.1C853.1 521 852.4 520.7 851.8 520.2C851.513 519.894 851.294 519.531 851.156 519.135C851.018 518.739 850.965 518.318 851 517.9V513.1H848.3V511.1ZM858.8 518.5H861.1C861.1 518.8 861.4 519 861.7 519.2C862 519.4 862.3 519.5 862.7 519.5H863.5C864.1 519.5 864.5 519.3 864.8 519.1C865.1 518.9 865.3 518.6 865.3 518.2C865.3 517.5 864.7 517.2 863.7 517L862.3 516.8C861.2 516.7 860.3 516.4 859.8 515.9C859.3 515.4 859 514.7 859 513.9C859 512.9 859.3 512.2 860 511.7C860.6 511.2 861.6 510.9 862.8 510.9H863.5C864.6 510.9 865.5 511.2 866.2 511.6C866.8 512.1 867.2 512.7 867.4 513.6H865C864.974 513.454 864.916 513.315 864.829 513.194C864.743 513.072 864.63 512.972 864.5 512.9C864.199 512.713 863.854 512.61 863.5 512.6H862.7C861.7 512.6 861.1 513 861.1 513.8C861.1 514.4 861.6 514.8 862.5 514.8L863.9 515.1C865.1 515.2 865.9 515.5 866.5 516.1C867.1 516.5 867.4 517.2 867.4 518.1C867.4 519.1 867 519.9 866.4 520.4C865.7 520.9 864.7 521.2 863.4 521.2H862.7C861.5 521.2 860.6 520.9 859.9 520.5C859.2 520 858.8 519.3 858.7 518.5H858.8ZM1085.3 508C1086 508 1086.6 508.1 1087.1 508.3L1088.4 509.1L1089.4 510.4L1089.6 512C1089.6 512.6 1089.6 513.1 1089.3 513.6C1089.1 514.1 1088.8 514.5 1088.4 514.8C1088.02 515.148 1087.58 515.419 1087.1 515.6C1086.6 515.8 1086 515.9 1085.3 515.9H1083.1V521H1080.8V508H1085.3ZM1083.1 514H1085.3C1085.58 514.01 1085.86 513.962 1086.11 513.858C1086.37 513.755 1086.61 513.599 1086.8 513.4C1087.2 513.1 1087.3 512.6 1087.3 512C1087.32 511.729 1087.29 511.456 1087.2 511.199C1087.12 510.941 1086.98 510.703 1086.8 510.5C1086.61 510.301 1086.37 510.145 1086.11 510.042C1085.86 509.939 1085.58 509.89 1085.3 509.9H1083.1V514ZM1093.6 511.1V512.8H1093.8C1093.9 512.2 1094.2 511.8 1094.7 511.4C1095.2 511.1 1095.7 510.9 1096.5 510.9C1097.6 510.9 1098.5 511.2 1099 511.9C1099.6 512.6 1100 513.5 1100 514.6V515.4H1097.6V514.8C1097.62 514.286 1097.44 513.785 1097.1 513.4C1096.91 513.201 1096.67 513.045 1096.41 512.942C1096.16 512.839 1095.88 512.79 1095.6 512.8C1095 512.8 1094.6 513 1094.3 513.4C1093.9 513.7 1093.8 514.2 1093.8 514.8V521H1091.5V511.1H1093.6ZM1105.5 521.1C1104.9 521.1 1104.3 521.1 1103.7 520.9C1103.22 520.719 1102.78 520.448 1102.4 520.1L1101.5 518.9C1101.29 518.393 1101.19 517.848 1101.2 517.3V514.8C1101.2 514.2 1101.3 513.7 1101.5 513.2C1101.7 512.726 1102 512.3 1102.38 511.955C1102.76 511.609 1103.21 511.352 1103.7 511.2L1105.5 510.9L1107.3 511.2C1107.8 511.4 1108.3 511.6 1108.6 512C1109 512.3 1109.3 512.7 1109.5 513.2C1109.7 513.7 1109.8 514.2 1109.8 514.8V517.3L1109.5 518.9C1109.3 519.375 1109 519.8 1108.62 520.145C1108.24 520.491 1107.79 520.749 1107.3 520.9C1106.8 521.1 1106.2 521.2 1105.5 521.2V521.1ZM1103.5 517.3C1103.5 517.9 1103.6 518.3 1104 518.7C1104.4 519 1104.9 519.2 1105.5 519.2C1105.77 519.223 1106.04 519.191 1106.3 519.105C1106.56 519.019 1106.8 518.881 1107 518.7C1107.4 518.3 1107.6 517.9 1107.6 517.3V514.8C1107.6 514.2 1107.4 513.8 1107 513.4C1106.8 513.219 1106.56 513.082 1106.3 512.996C1106.04 512.91 1105.77 512.877 1105.5 512.9C1105.23 512.877 1104.96 512.91 1104.7 512.996C1104.44 513.082 1104.2 513.219 1104 513.4C1103.6 513.8 1103.4 514.2 1103.4 514.8V517.3H1103.5ZM1111.5 514.8C1111.5 514.2 1111.5 513.7 1111.7 513.2C1111.9 512.7 1112.1 512.3 1112.4 512C1112.7 511.653 1113.08 511.379 1113.5 511.2C1113.9 511 1114.4 510.9 1114.9 510.9C1115.54 510.871 1116.17 511.046 1116.7 511.4C1117.2 511.8 1117.4 512.2 1117.5 512.8H1117.7V512.2C1117.66 511.834 1117.66 511.466 1117.7 511.1V508.1H1119.9V521H1117.7V519.3H1117.5C1117.5 519.9 1117.2 520.3 1116.7 520.7C1116.17 521.054 1115.54 521.229 1114.9 521.2C1114.4 521.2 1113.9 521.1 1113.5 520.9C1113.11 520.709 1112.77 520.436 1112.5 520.1C1112.1 519.8 1111.9 519.4 1111.7 518.9L1111.5 517.3V514.8ZM1113.7 514.8V517.2C1113.7 517.8 1113.9 518.3 1114.3 518.7C1114.6 519 1115.1 519.2 1115.7 519.2C1116.3 519.2 1116.7 519 1117.1 518.7C1117.5 518.3 1117.6 517.8 1117.6 517.3V514.8C1117.6 514.2 1117.5 513.8 1117.1 513.4C1116.8 513 1116.3 512.9 1115.7 512.9C1115.19 512.881 1114.69 513.06 1114.3 513.4C1113.92 513.769 1113.71 514.273 1113.7 514.8ZM1124.3 511.1V517.3C1124.3 518.6 1124.9 519.3 1126.1 519.3C1127.3 519.3 1127.9 518.6 1127.9 517.3V511H1130.2V517.2C1130.2 518.4 1129.8 519.4 1129.1 520.1C1128.4 520.7 1127.4 521.1 1126.1 521.1C1124.8 521.1 1123.8 520.7 1123.1 520.1C1122.4 519.4 1122.1 518.4 1122.1 517.1V511H1124.3V511.1ZM1136.5 521.1C1135.9 521.1 1135.3 521.1 1134.7 520.9C1134.2 520.7 1133.7 520.5 1133.4 520.1C1133 519.8 1132.7 519.4 1132.5 518.9C1132.29 518.393 1132.19 517.848 1132.2 517.3V514.8C1132.2 514.2 1132.3 513.7 1132.5 513.2C1132.7 512.7 1133 512.3 1133.4 512C1133.78 511.652 1134.22 511.381 1134.7 511.2C1135.8 510.827 1137 510.827 1138.1 511.2C1138.8 511.432 1139.43 511.854 1139.9 512.419C1140.38 512.983 1140.69 513.669 1140.8 514.4H1138.6C1138.5 514 1138.3 513.6 1137.9 513.4C1137.5 513 1137.1 512.9 1136.5 512.9C1135.9 512.9 1135.4 513 1135 513.4C1134.7 513.7 1134.5 514.2 1134.5 514.8V517.3C1134.5 517.9 1134.7 518.3 1135 518.7C1135.4 519.1 1135.9 519.2 1136.5 519.2C1137 519.2 1137.5 519.1 1137.9 518.8C1138.3 518.5 1138.5 518.1 1138.6 517.7H1140.8C1140.8 518.2 1140.6 518.7 1140.3 519.1C1139.81 519.949 1139.03 520.59 1138.1 520.9C1137.59 521.087 1137.05 521.188 1136.5 521.2V521.1ZM1142.1 511.1H1144.8V508.1H1147.1V511.1H1150.9V513.1H1147.1V517.9C1147.1 518.3 1147.1 518.5 1147.4 518.7C1147.6 518.9 1147.8 519 1148.2 519H1150.7V521H1148C1147 521 1146.3 520.7 1145.7 520.2C1145.4 519.903 1145.16 519.544 1145 519.147C1144.85 518.75 1144.78 518.325 1144.8 517.9V513.1H1142.1V511.1ZM1153.1 518.9H1156.6V513.1H1153.6V511.1H1158.8V518.9H1161.7V521H1153.1V519V518.9ZM1156 508.4C1156 508.1 1156.1 507.8 1156.3 507.6C1156.6 507.3 1156.9 507.2 1157.3 507.2H1157.7C1158.1 507.2 1158.4 507.3 1158.7 507.6C1158.9 507.8 1159 508.1 1159 508.4C1159 508.8 1158.9 509.1 1158.7 509.3C1158.4 509.5 1158.1 509.6 1157.7 509.6H1157.3C1156.9 509.6 1156.6 509.5 1156.3 509.3C1156.1 509.1 1156 508.8 1156 508.4ZM1167.3 521.2L1165.5 520.9C1165.02 520.719 1164.58 520.448 1164.2 520.1L1163.3 518.9C1163.09 518.393 1162.99 517.848 1163 517.3V514.8C1163 514.2 1163.1 513.7 1163.3 513.2C1163.5 512.726 1163.8 512.3 1164.18 511.955C1164.56 511.609 1165.01 511.352 1165.5 511.2L1167.3 510.9L1169.1 511.2C1169.6 511.4 1170.1 511.6 1170.4 512C1170.8 512.3 1171.1 512.7 1171.3 513.2C1171.5 513.7 1171.6 514.2 1171.6 514.8V517.3L1171.3 518.9C1171.1 519.375 1170.8 519.8 1170.42 520.145C1170.04 520.491 1169.59 520.749 1169.1 520.9C1168.6 521.1 1168 521.2 1167.3 521.2ZM1165.3 517.2C1165.3 517.9 1165.4 518.3 1165.8 518.7C1166.2 519 1166.7 519.2 1167.3 519.2C1167.57 519.223 1167.84 519.191 1168.1 519.105C1168.36 519.019 1168.6 518.881 1168.8 518.7C1169.2 518.3 1169.4 517.9 1169.4 517.3V514.8C1169.4 514.2 1169.2 513.8 1168.8 513.4C1168.6 513.219 1168.36 513.082 1168.1 512.996C1167.84 512.91 1167.57 512.877 1167.3 512.9C1167.03 512.877 1166.76 512.91 1166.5 512.996C1166.24 513.082 1166 513.219 1165.8 513.4C1165.4 513.8 1165.2 514.2 1165.2 514.8V517.3L1165.3 517.2ZM1173.5 511.1H1175.6V512.8H1175.8C1175.9 512.2 1176.2 511.8 1176.6 511.4C1177.13 511.046 1177.76 510.871 1178.4 510.9C1179.4 510.9 1180.2 511.2 1180.8 511.9C1181.4 512.6 1181.7 513.4 1181.7 514.5V521H1179.4V514.8C1179.4 514.2 1179.3 513.8 1178.9 513.4C1178.6 513 1178.2 512.9 1177.6 512.9C1177 512.9 1176.6 513 1176.2 513.4C1175.86 513.785 1175.68 514.286 1175.7 514.8V521H1173.5V511.1ZM760 181L761.8 181.3L763.1 182.1C763.5 182.4 763.8 182.8 764.1 183.3L764.3 184.9C764.3 185.8 764.1 186.5 763.7 187.1C763.2 187.8 762.7 188.2 761.9 188.5L764.5 194H762L759.7 188.8H758V194H755.7V181H760ZM758 187H760C760.271 187.023 760.544 186.991 760.802 186.905C761.059 186.819 761.297 186.681 761.5 186.5C761.8 186.1 762 185.6 762 185C762.023 184.729 761.991 184.456 761.905 184.199C761.819 183.941 761.681 183.703 761.5 183.5C761.306 183.301 761.072 183.145 760.813 183.042C760.555 182.939 760.278 182.89 760 182.9H758V187ZM765.8 187.8C765.8 187.2 765.9 186.7 766.1 186.2C766.3 185.7 766.6 185.3 767 185C767.3 184.6 767.8 184.4 768.3 184.2C768.8 184 769.4 183.9 770.1 183.9L771.9 184.2C772.4 184.4 772.9 184.6 773.2 185C773.6 185.3 773.9 185.7 774.1 186.2C774.3 186.7 774.4 187.2 774.4 187.8V189.6H768V190.3C768 190.9 768.2 191.4 768.6 191.8C768.9 192.2 769.5 192.4 770.1 192.4C770.6 192.4 771 192.3 771.3 192.1C771.7 192 771.9 191.8 772.1 191.5H774.3L773.8 192.6L772.8 193.5L771.6 194C770.525 194.332 769.375 194.332 768.3 194C767.8 193.7 767.3 193.5 767 193.1C766.6 192.8 766.3 192.4 766.1 191.9C765.891 191.393 765.789 190.848 765.8 190.3V187.8ZM768 188.1H772.2V187.8C772.21 187.522 772.162 187.245 772.058 186.987C771.955 186.728 771.799 186.495 771.6 186.3C771.405 186.101 771.172 185.945 770.913 185.842C770.655 185.739 770.378 185.69 770.1 185.7C769.822 185.69 769.545 185.739 769.287 185.842C769.029 185.945 768.795 186.101 768.6 186.3C768.401 186.495 768.245 186.728 768.142 186.987C768.039 187.245 767.99 187.522 768 187.8V188.1ZM775.9 194V184.1H777.7V185.5H777.9C777.9 185 778.1 184.6 778.3 184.4C778.6 184.1 779 183.9 779.5 183.9C780 183.9 780.3 184.1 780.5 184.3C780.8 184.6 781 185 781.1 185.5H781.3C781.3 185 781.5 184.6 781.8 184.4C782 184.1 782.4 183.9 782.9 183.9C783.5 183.9 784 184.1 784.4 184.6C784.8 185 784.9 185.6 784.9 186.4V194H782.9V186.6C782.9 185.9 782.6 185.5 782.1 185.5C781.8 185.5 781.6 185.6 781.4 185.8L781.2 186.7V194H779.6V186.6C779.6 186.3 779.6 186 779.4 185.8C779.318 185.696 779.21 185.614 779.088 185.561C778.966 185.509 778.832 185.488 778.7 185.5C778.4 185.5 778.2 185.6 778.1 185.8C777.9 186 777.9 186.3 777.9 186.7V194H775.9ZM790.7 194.2L788.9 193.9C788.419 193.719 787.978 193.448 787.6 193.1L786.7 191.9C786.491 191.393 786.389 190.848 786.4 190.3V187.8C786.4 187.2 786.5 186.7 786.7 186.2C786.897 185.726 787.197 185.3 787.577 184.955C787.957 184.609 788.409 184.351 788.9 184.2L790.7 183.9L792.5 184.2C793 184.4 793.5 184.6 793.8 185C794.2 185.3 794.5 185.7 794.7 186.2C794.9 186.7 795 187.2 795 187.8V190.3L794.7 191.9C794.503 192.374 794.203 192.8 793.823 193.145C793.443 193.491 792.991 193.749 792.5 193.9C792 194.1 791.4 194.2 790.7 194.2ZM788.7 190.2C788.7 190.9 788.8 191.3 789.2 191.7C789.6 192 790.1 192.2 790.7 192.2C790.971 192.223 791.244 192.191 791.502 192.105C791.759 192.019 791.997 191.881 792.2 191.7C792.6 191.3 792.8 190.9 792.8 190.3V187.8C792.8 187.2 792.6 186.8 792.2 186.4C791.997 186.219 791.759 186.081 791.502 185.996C791.244 185.91 790.971 185.877 790.7 185.9C790.429 185.877 790.156 185.91 789.899 185.996C789.641 186.081 789.403 186.219 789.2 186.4C788.8 186.8 788.6 187.2 788.6 187.8V190.3L788.7 190.2ZM796.4 184.1H799.1V181.1H801.4V184.1H805.2V186.1H801.4V190.9C801.4 191.3 801.4 191.5 801.7 191.7C801.9 191.9 802.1 192 802.5 192H805V194H802.3C801.3 194 800.6 193.7 800 193.2C799.695 192.903 799.458 192.544 799.302 192.147C799.147 191.75 799.078 191.325 799.1 190.9V186.1H796.4V184.1ZM807 187.8C807 187.2 807.1 186.7 807.3 186.2C807.5 185.7 807.8 185.3 808.2 185C808.5 184.6 809 184.4 809.5 184.2C810 184 810.6 183.9 811.3 183.9L813.1 184.2C813.6 184.4 814.1 184.6 814.4 185C814.8 185.3 815.1 185.7 815.3 186.2C815.5 186.7 815.6 187.2 815.6 187.8V189.6H809.2V190.3C809.2 190.9 809.4 191.4 809.8 191.8C810.1 192.2 810.7 192.4 811.3 192.4C811.8 192.4 812.2 192.3 812.5 192.1C812.9 192 813.1 191.8 813.3 191.5H815.5L815 192.6L814 193.5L812.8 194C811.725 194.332 810.575 194.332 809.5 194C809 193.7 808.5 193.5 808.2 193.1C807.8 192.8 807.5 192.4 807.3 191.9C807.091 191.393 806.989 190.848 807 190.3V187.8ZM809.2 188.1H813.4V187.8C813.41 187.522 813.362 187.245 813.258 186.987C813.155 186.728 812.999 186.495 812.8 186.3C812.605 186.101 812.372 185.945 812.113 185.842C811.855 185.739 811.578 185.69 811.3 185.7C811.022 185.69 810.745 185.739 810.487 185.842C810.228 185.945 809.995 186.101 809.8 186.3C809.601 186.495 809.445 186.728 809.342 186.987C809.239 187.245 809.19 187.522 809.2 187.8V188.1ZM827.5 190.6H829.8C829.8 191.1 830 191.5 830.4 191.8C830.8 192.1 831.4 192.2 832 192.2C832.6 192.2 833.1 192.1 833.5 191.8C833.9 191.5 834 191.1 834 190.6C834 190.1 833.9 189.7 833.6 189.4C833.4 189.1 833 188.8 832.5 188.7L831.1 188.3C830 188 829.1 187.5 828.6 186.9C828 186.2 827.7 185.4 827.7 184.4C827.7 183.9 827.8 183.4 828 183C828.2 182.5 828.5 182.1 828.9 181.8C829.2 181.5 829.7 181.3 830.2 181.1C830.7 180.9 831.2 180.8 831.9 180.8C833.2 180.8 834.2 181.2 834.9 181.8C835.7 182.4 836.1 183.3 836.1 184.4H833.8C833.8 183.9 833.6 183.5 833.3 183.2C832.9 183 832.5 182.8 831.9 182.8C831.3 182.8 830.9 183 830.5 183.2C830.2 183.5 830 183.9 830 184.4C830 184.8 830.1 185.1 830.4 185.4C830.6 185.7 831 185.9 831.5 186.1L833.1 186.5C834.1 186.8 834.9 187.3 835.5 188C836 188.6 836.3 189.5 836.3 190.5C836.3 191 836.3 191.5 836 192L835.1 193.2L833.7 193.9C832.532 194.289 831.269 194.289 830.1 193.9L828.7 193.2L827.8 192.1L827.5 190.6ZM837.6 184.1H840.3V181.1H842.6V184.1H846.4V186.1H842.6V190.9C842.6 191.3 842.6 191.5 842.9 191.7C843.1 191.9 843.3 192 843.7 192H846.2V194H843.5C842.5 194 841.8 193.7 841.2 193.2C840.895 192.903 840.658 192.544 840.502 192.147C840.347 191.75 840.278 191.325 840.3 190.9V186.1H837.6V184.1ZM852.5 194.1C851.9 194.1 851.3 194.1 850.7 193.9C850.219 193.719 849.778 193.448 849.4 193.1L848.5 191.9C848.291 191.393 848.189 190.848 848.2 190.3V187.8C848.2 187.2 848.3 186.7 848.5 186.2C848.697 185.726 848.997 185.3 849.377 184.955C849.757 184.609 850.209 184.351 850.7 184.2L852.5 183.9L854.3 184.2C854.8 184.4 855.3 184.6 855.6 185C856 185.3 856.3 185.7 856.5 186.2C856.7 186.7 856.8 187.2 856.8 187.8V190.3L856.5 191.9C856.303 192.374 856.003 192.8 855.623 193.145C855.243 193.491 854.791 193.749 854.3 193.9C853.8 194.1 853.2 194.2 852.5 194.2V194.1ZM850.5 190.3C850.5 190.9 850.6 191.3 851 191.7C851.4 192 851.9 192.2 852.5 192.2C852.771 192.223 853.044 192.191 853.302 192.105C853.559 192.019 853.797 191.881 854 191.7C854.4 191.3 854.6 190.9 854.6 190.3V187.8C854.6 187.2 854.4 186.8 854 186.4C853.797 186.219 853.559 186.081 853.302 185.996C853.044 185.91 852.771 185.877 852.5 185.9C852.229 185.877 851.956 185.91 851.699 185.996C851.441 186.081 851.203 186.219 851 186.4C850.6 186.8 850.4 187.2 850.4 187.8V190.3H850.5ZM861.2 184.1V185.8H861.4C861.5 185.2 861.8 184.8 862.3 184.4C862.8 184.1 863.3 183.9 864.1 183.9C865.2 183.9 866.1 184.2 866.6 184.9C867.2 185.6 867.6 186.5 867.6 187.6V188.4H865.2V187.8C865.219 187.286 865.04 186.785 864.7 186.4C864.506 186.201 864.272 186.045 864.013 185.942C863.755 185.839 863.478 185.79 863.2 185.8C862.6 185.8 862.2 186 861.9 186.4C861.5 186.7 861.4 187.2 861.4 187.8V194H859V184.1H861.1H861.2ZM868.6 191.2C868.6 190.7 868.7 190.3 868.9 189.9C869.1 189.5 869.3 189.2 869.7 188.9C870 188.6 870.4 188.4 870.9 188.3C871.4 188.1 871.9 188 872.5 188H875V187.2C875 186.7 874.8 186.4 874.4 186.2C874.1 185.8 873.6 185.7 873 185.7C872.5 185.7 872.1 185.7 871.8 186C871.4 186.2 871.2 186.4 871.1 186.7H869C869.08 186.287 869.246 185.896 869.487 185.551C869.729 185.207 870.04 184.917 870.4 184.7C870.7 184.4 871.1 184.3 871.6 184.1L873.1 183.9C873.8 183.9 874.3 183.9 874.9 184.1C875.4 184.3 875.9 184.5 876.2 184.8C876.554 185.09 876.838 185.457 877.028 185.873C877.219 186.289 877.312 186.743 877.3 187.2V194H875.2V192H875C875 192.7 874.6 193.2 874 193.6C873.4 194 872.7 194.2 871.9 194.2C870.9 194.2 870.2 193.9 869.6 193.4C869 192.8 868.7 192.1 868.7 191.2H868.6ZM870.9 191C870.9 191.4 871 191.8 871.3 192C871.6 192.3 872.1 192.4 872.6 192.4C873.3 192.4 873.8 192.3 874.3 191.9C874.7 191.6 875 191.2 875 190.7V189.5H872.5C872 189.5 871.5 189.6 871.3 189.9C871 190.1 870.9 190.5 870.9 190.9V191ZM879 187.8C879 187.2 879.1 186.7 879.3 186.2C879.4 185.7 879.7 185.3 880 185C880.272 184.665 880.613 184.392 881 184.2L882.5 183.9C883.149 183.9 883.781 184.111 884.3 184.5C884.8 184.8 885.1 185.3 885.2 185.9H885.3V184.1H887.5V193.4C887.5 194 887.4 194.4 887.2 194.9C887 195.4 886.7 195.8 886.4 196.1L885.1 196.8C884.6 197 884 197.1 883.4 197.1H880.7V195.1H883.4C883.9 195.1 884.4 195.1 884.7 194.7C885.1 194.4 885.2 194 885.2 193.4V193.2L885.3 191.3H885.2C885.1 191.9 884.8 192.4 884.2 192.8C883.697 193.134 883.104 193.308 882.5 193.3C881.9 193.3 881.5 193.3 881.1 193C880.673 192.817 880.29 192.544 879.98 192.198C879.669 191.853 879.437 191.444 879.3 191C879.1 190.6 879 190 879 189.5V187.8ZM881.3 189.4C881.3 190 881.5 190.4 881.8 190.8C882.2 191.2 882.7 191.3 883.3 191.3C883.9 191.3 884.3 191.2 884.7 190.8C885.1 190.5 885.2 190 885.2 189.4V187.8C885.2 187.2 885.1 186.8 884.7 186.4C884.315 186.06 883.814 185.881 883.3 185.9C883.029 185.877 882.756 185.91 882.499 185.996C882.241 186.081 882.003 186.219 881.8 186.4C881.46 186.785 881.281 187.286 881.3 187.8V189.4ZM889.4 187.8C889.4 187.2 889.5 186.7 889.7 186.2C889.9 185.7 890.2 185.3 890.6 185C890.9 184.6 891.4 184.4 891.9 184.2C892.4 184 893 183.9 893.7 183.9L895.5 184.2C896 184.4 896.5 184.6 896.8 185C897.2 185.3 897.5 185.7 897.7 186.2C897.9 186.7 898 187.2 898 187.8V189.6H891.6V190.3C891.6 190.9 891.8 191.4 892.2 191.8C892.5 192.2 893.1 192.4 893.7 192.4C894.2 192.4 894.6 192.3 894.9 192.1C895.3 192 895.5 191.8 895.7 191.5H897.9L897.4 192.6L896.4 193.5L895.2 194C894.125 194.332 892.975 194.332 891.9 194C891.4 193.7 890.9 193.5 890.6 193.1C890.2 192.8 889.9 192.4 889.7 191.9C889.491 191.393 889.389 190.848 889.4 190.3V187.8ZM891.6 188.1H895.8V187.8C895.81 187.522 895.762 187.245 895.658 186.987C895.555 186.728 895.399 186.495 895.2 186.3C895.006 186.101 894.772 185.945 894.513 185.842C894.255 185.739 893.978 185.69 893.7 185.7C893.422 185.69 893.145 185.739 892.887 185.842C892.628 185.945 892.395 186.101 892.2 186.3C892.001 186.495 891.845 186.728 891.742 186.987C891.639 187.245 891.59 187.522 891.6 187.8V188.1ZM416.5 181H419.5L422.9 194H420.6L419.8 190.7H416.1L415.3 194H413L416.5 181ZM419.4 189L418.3 184.3C418.224 183.902 418.157 183.502 418.1 183.1L418 182.5H417.9V183.1C417.81 183.502 417.71 183.903 417.6 184.3L416.5 189H419.4ZM423.9 191.5H426.2C426.2 191.8 426.5 192 426.8 192.2C427.1 192.4 427.4 192.5 427.8 192.5H428.6C429.2 192.5 429.6 192.3 429.9 192.1C430.2 191.9 430.4 191.6 430.4 191.2C430.4 190.5 429.8 190.2 428.8 190L427.4 189.8C426.3 189.7 425.4 189.4 424.9 188.9C424.4 188.4 424.1 187.7 424.1 186.9C424.1 185.9 424.4 185.2 425.1 184.7C425.7 184.2 426.7 183.9 427.9 183.9H428.6C429.7 183.9 430.6 184.2 431.3 184.6C431.9 185.1 432.3 185.7 432.5 186.6H430.2C430.174 186.454 430.116 186.315 430.029 186.194C429.943 186.072 429.83 185.972 429.7 185.9C429.399 185.713 429.054 185.61 428.7 185.6H427.9C426.9 185.6 426.3 186 426.3 186.8C426.3 187.4 426.8 187.8 427.7 187.8L429.1 188.1C430.3 188.2 431.1 188.5 431.7 189.1C432.3 189.5 432.6 190.2 432.6 191.1C432.6 192.1 432.2 192.9 431.6 193.4C430.9 193.9 429.9 194.2 428.6 194.2H427.9C426.7 194.2 425.8 193.9 425.1 193.5C424.4 193 424 192.3 423.9 191.5ZM434.2 191.5H436.5C436.5 191.8 436.8 192 437.1 192.2C437.4 192.4 437.7 192.5 438.1 192.5H438.9C439.5 192.5 439.9 192.3 440.2 192.1C440.5 191.9 440.7 191.6 440.7 191.2C440.7 190.5 440.1 190.2 439.1 190L437.7 189.8C436.6 189.7 435.7 189.4 435.2 188.9C434.7 188.4 434.4 187.7 434.4 186.9C434.4 185.9 434.7 185.2 435.4 184.7C436 184.2 437 183.9 438.2 183.9H438.9C440 183.9 440.9 184.2 441.6 184.6C442.2 185.1 442.6 185.7 442.8 186.6H440.5C440.474 186.454 440.416 186.315 440.329 186.194C440.243 186.072 440.13 185.972 440 185.9C439.699 185.713 439.354 185.61 439 185.6H438.2C437.2 185.6 436.6 186 436.6 186.8C436.6 187.4 437.1 187.8 438 187.8L439.4 188.1C440.6 188.2 441.4 188.5 442 189.1C442.6 189.5 442.9 190.2 442.9 191.1C442.9 192.1 442.5 192.9 441.9 193.4C441.2 193.9 440.2 194.2 438.9 194.2H438.2C437 194.2 436.1 193.9 435.4 193.5C434.7 193 434.3 192.3 434.2 191.5ZM444.5 187.8C444.5 187.2 444.6 186.7 444.9 186.2C445.1 185.7 445.3 185.3 445.7 185C446.1 184.6 446.5 184.4 447.1 184.2C447.6 184 448.1 183.9 448.9 183.9C449.5 183.9 450.1 184 450.6 184.2C451.1 184.4 451.6 184.6 451.9 185C452.3 185.3 452.6 185.7 452.9 186.2L453.1 187.8V189.6H446.8V190.3C446.8 190.9 447 191.4 447.3 191.8C447.7 192.2 448.2 192.4 448.9 192.4L450.1 192.1C450.4 192 450.7 191.8 450.8 191.5H453C453 191.9 452.8 192.3 452.5 192.6L451.5 193.5L450.3 194C449.256 194.311 448.144 194.311 447.1 194C446.5 193.7 446.1 193.5 445.7 193.1C445.3 192.8 445.1 192.4 444.9 191.9C444.657 191.4 444.521 190.855 444.5 190.3V187.8ZM446.8 188.1H450.9V187.8C450.923 187.529 450.891 187.256 450.805 186.999C450.719 186.741 450.581 186.503 450.4 186.3C450.206 186.101 449.972 185.945 449.713 185.842C449.455 185.739 449.178 185.69 448.9 185.7C448.606 185.676 448.309 185.717 448.033 185.821C447.756 185.924 447.506 186.088 447.3 186.3C447.119 186.503 446.982 186.741 446.896 186.999C446.81 187.256 446.777 187.529 446.8 187.8V188.1ZM454.6 184.1H457.3V181.1H459.5V184.1H463.3V186.1H459.5V190.9C459.5 191.3 459.6 191.5 459.8 191.7C460 191.9 460.3 192 460.6 192H463.1V194H460.4C459.4 194 458.7 193.7 458.1 193.2C457.813 192.894 457.594 192.531 457.456 192.135C457.318 191.739 457.265 191.318 457.3 190.9V186.1H454.6V184.1ZM465.1 191.5H467.4C467.4 191.8 467.7 192 468 192.2C468.3 192.4 468.6 192.5 469 192.5H469.8C470.4 192.5 470.8 192.3 471.1 192.1C471.4 191.9 471.6 191.6 471.6 191.2C471.6 190.5 471 190.2 470 190L468.6 189.8C467.5 189.7 466.6 189.4 466.1 188.9C465.6 188.4 465.3 187.7 465.3 186.9C465.3 185.9 465.6 185.2 466.3 184.7C466.9 184.2 467.9 183.9 469.1 183.9H469.8C470.9 183.9 471.8 184.2 472.5 184.6C473.1 185.1 473.5 185.7 473.7 186.6H471.4C471.374 186.454 471.316 186.315 471.229 186.194C471.143 186.072 471.03 185.972 470.9 185.9C470.599 185.713 470.254 185.61 469.9 185.6H469.1C468.1 185.6 467.5 186 467.5 186.8C467.5 187.4 468 187.8 468.9 187.8L470.3 188.1C471.5 188.2 472.3 188.5 472.9 189.1C473.5 189.5 473.8 190.2 473.8 191.1C473.8 192.1 473.4 192.9 472.8 193.4C472.1 193.9 471.1 194.2 469.8 194.2H469.1C467.9 194.2 467 193.9 466.3 193.5C465.6 193 465.2 192.3 465.1 191.5ZM485.4 189.2C485.4 188.5 485.6 187.9 485.9 187.4C486.2 186.9 486.7 186.6 487.3 186.4L486.6 185.1L486.4 184C486.4 183.5 486.5 183 486.7 182.7L487.4 181.7C487.7 181.4 488 181.2 488.4 181.1C488.9 180.9 489.4 180.9 489.9 180.9C490.4 180.9 490.9 180.9 491.4 181.1L492.5 181.8C492.8 182 493 182.4 493.2 182.8C493.4 183.2 493.5 183.6 493.5 184.1H491.4C491.4 183.7 491.3 183.4 491 183.1C490.7 182.8 490.4 182.7 490 182.7C489.5 182.7 489.1 182.8 488.9 183.1C488.6 183.4 488.5 183.7 488.5 184.1C488.5 184.4 488.5 184.6 488.7 184.9C488.7 185.2 489 185.5 489.2 185.9L491.7 189.4L492.7 187.5H494.9L492.9 191.2L494.9 194H492.8L491.9 192.8C491.529 193.234 491.069 193.583 490.552 193.825C490.034 194.066 489.471 194.194 488.9 194.2C487.8 194.2 486.9 193.9 486.3 193.2C485.7 192.7 485.4 191.9 485.4 190.8V189.2ZM488.3 187.8C487.8 188 487.6 188.5 487.6 189.2V190.8C487.6 191.3 487.6 191.7 488 191.9C488.2 192.2 488.6 192.3 489 192.3C489.4 192.3 489.7 192.3 490 192L490.8 191.3L488.2 187.8H488.3ZM506.6 181H510.6L512.4 181.3C512.9 181.5 513.4 181.8 513.7 182.2C514.1 182.5 514.4 183 514.7 183.5C514.8 184 515 184.5 515 185.1V189.9C515 190.5 514.8 191.1 514.6 191.6C514.403 192.086 514.105 192.524 513.726 192.887C513.347 193.249 512.895 193.526 512.4 193.7L510.6 194H506.6V181ZM508.8 192H510.6C511.2 192 511.7 191.7 512.1 191.4C512.5 191 512.7 190.4 512.7 189.9V185C512.693 184.473 512.477 183.969 512.1 183.6C511.7 183.2 511.2 183 510.6 183H508.8V191.8V192ZM516.5 191.2C516.5 190.7 516.5 190.3 516.7 189.9L517.5 188.9C517.8 188.6 518.3 188.4 518.7 188.3C519.2 188.1 519.7 188 520.3 188H522.8V187.2C522.8 186.7 522.6 186.4 522.3 186.2C521.9 185.8 521.5 185.7 520.9 185.7C520.4 185.7 519.9 185.7 519.6 186C519.3 186.2 519.1 186.4 519 186.7H516.8C516.868 186.295 517.019 185.909 517.243 185.565C517.466 185.221 517.758 184.927 518.1 184.7L519.3 184.1L520.9 183.9C521.5 183.9 522.1 183.9 522.6 184.1C523.1 184.3 523.6 184.5 523.9 184.8C524.273 185.079 524.575 185.442 524.783 185.858C524.992 186.275 525.1 186.734 525.1 187.2V194H522.9V192H522.8C522.7 192.7 522.3 193.2 521.8 193.6C521.2 194 520.5 194.2 519.7 194.2C518.7 194.2 517.9 193.9 517.3 193.4C516.8 192.8 516.5 192.1 516.5 191.2ZM518.7 191C518.7 191.4 518.9 191.8 519.2 192C519.5 192.3 519.9 192.4 520.5 192.4C521.1 192.4 521.7 192.3 522.1 191.9C522.6 191.6 522.8 191.2 522.8 190.7V189.5H520.3C519.8 189.5 519.4 189.6 519.2 189.9C518.9 190.1 518.7 190.5 518.7 190.9V191ZM526.7 184.1H529.4V181.1H531.6V184.1H535.4V186.1H531.6V190.9C531.6 191.3 531.7 191.5 531.9 191.7C532.1 191.9 532.4 192 532.7 192H535.2V194H532.5C531.5 194 530.8 193.7 530.2 193.2C529.913 192.894 529.694 192.531 529.556 192.135C529.418 191.739 529.365 191.318 529.4 190.9V186.1H526.7V184.1ZM537.1 191.2C537.1 190.7 537.1 190.3 537.3 189.9L538.1 188.9C538.4 188.6 538.9 188.4 539.3 188.3C539.8 188.1 540.3 188 540.9 188H543.4V187.2C543.4 186.7 543.2 186.4 542.9 186.2C542.5 185.8 542.1 185.7 541.5 185.7C541 185.7 540.5 185.7 540.2 186C539.9 186.2 539.7 186.4 539.6 186.7H537.4C537.468 186.295 537.619 185.909 537.843 185.565C538.066 185.221 538.358 184.927 538.7 184.7L539.9 184.1L541.5 183.9C542.1 183.9 542.7 183.9 543.2 184.1C543.7 184.3 544.2 184.5 544.5 184.8C544.873 185.079 545.175 185.442 545.383 185.858C545.592 186.275 545.7 186.734 545.7 187.2V194H543.5V192H543.4C543.3 192.7 542.9 193.2 542.4 193.6C541.8 194 541.1 194.2 540.3 194.2C539.3 194.2 538.5 193.9 537.9 193.4C537.4 192.8 537.1 192.1 537.1 191.2ZM539.3 191C539.3 191.4 539.5 191.8 539.8 192C540.1 192.3 540.5 192.4 541.1 192.4C541.7 192.4 542.3 192.3 542.7 191.9C543.2 191.6 543.4 191.2 543.4 190.7V189.5H540.9C540.4 189.5 540 189.6 539.8 189.9C539.5 190.1 539.3 190.5 539.3 190.9V191Z" fill="white"/>
<path d="M199.1 439.5L198.9 439.8H198C197.548 439.509 197.08 439.242 196.6 439L195.6 438.9C195 438.9 194.5 439 194.1 439.2C193.6 439.4 193.3 439.7 193 440.1C192.712 440.524 192.509 440.999 192.4 441.5C192.2 442 192.2 442.6 192.2 443.3C192.2 444 192.2 444.6 192.4 445.2C192.5 445.8 192.8 446.2 193 446.6L194 447.5L195.5 447.8C196.224 447.786 196.925 447.54 197.5 447.1L198.1 446.7L198.6 446.5C198.9 446.5 199.1 446.6 199.2 446.8L200.2 448C199.532 448.778 198.669 449.364 197.7 449.7L196.3 450.1H194.9C194.081 450.132 193.264 449.996 192.5 449.7C191.8 449.4 191.2 449 190.6 448.4C190.1 447.8 189.6 447.1 189.3 446.2C189 445.4 188.9 444.4 188.9 443.3C188.9 442.3 189 441.4 189.3 440.6C189.6 439.7 190 439 190.5 438.4C191.1 437.8 191.8 437.4 192.5 437C193.389 436.644 194.342 436.473 195.3 436.5C196.3 436.5 197.3 436.6 198 436.9C198.7 437.3 199.4 437.7 200 438.3L199.1 439.5ZM205.6 430.7V450H202.4V430.7H205.6ZM214.9 436.5C215.9 436.5 216.8 436.6 217.6 436.9C218.397 437.212 219.116 437.697 219.704 438.319C220.291 438.941 220.734 439.686 221 440.5C221.682 442.339 221.682 444.361 221 446.2C220.722 446.995 220.273 447.721 219.686 448.325C219.099 448.929 218.387 449.399 217.6 449.7C216.8 450 215.9 450.2 214.9 450.2C213.9 450.2 213 450 212.2 449.7C211.413 449.399 210.701 448.929 210.114 448.325C209.527 447.721 209.079 446.995 208.8 446.2C208.4 445.3 208.3 444.4 208.3 443.3C208.3 442.3 208.4 441.3 208.8 440.5C209.084 439.708 209.535 438.986 210.121 438.382C210.708 437.778 211.417 437.307 212.2 437C213 436.6 213.9 436.5 214.9 436.5ZM214.9 447.7C216 447.7 216.9 447.4 217.4 446.7C217.9 445.9 218.2 444.7 218.2 443.3C218.2 441.9 217.9 440.8 217.4 440C216.8 439.3 216 439 214.9 439C213.8 439 212.9 439.3 212.4 440C211.9 440.8 211.6 441.9 211.6 443.3C211.6 444.8 211.9 445.9 212.4 446.6C212.9 447.4 213.8 447.7 214.9 447.7ZM223.9 450V436.7H225.9C226.4 436.7 226.6 436.9 226.8 437.2L227 438.3C227.53 437.777 228.137 437.339 228.8 437C229.513 436.645 230.304 436.473 231.1 436.5C231.8 436.5 232.5 436.5 233.1 436.8L234.5 437.8C235.234 438.862 235.65 440.11 235.7 441.4V450H232.4V441.5C232.4 440.7 232.2 440.1 231.8 439.6C231.5 439.2 230.8 439 230.1 439C229.6 439 229.1 439 228.6 439.3L227.2 440.3V450H224H223.9ZM244.3 436.5C245.1 436.5 245.9 436.5 246.6 436.9C247.29 437.15 247.916 437.548 248.434 438.066C248.953 438.585 249.351 439.211 249.6 439.9C249.974 440.923 250.11 442.017 250 443.1V443.5L249.7 443.7C249.568 443.727 249.432 443.727 249.3 443.7H241.1C241.1 445.1 241.5 446.1 242.1 446.7C242.8 447.4 243.7 447.7 244.7 447.7C245.2 447.7 245.7 447.7 246.1 447.5C246.677 447.257 247.245 446.99 247.8 446.7L248.4 446.5L248.8 446.6L249 446.8L250 448C249.6 448.4 249.2 448.8 248.7 449C247.853 449.539 246.897 449.881 245.9 450C245.4 450.2 244.9 450.2 244.4 450.2C243.5 450.2 242.7 450 241.9 449.7C241.1 449.4 240.4 449 239.8 448.4C239.2 447.8 238.8 447 238.4 446.1C237.783 444.284 237.783 442.316 238.4 440.5C238.6 439.7 239 439 239.6 438.4C240.164 437.801 240.845 437.325 241.6 437C242.4 436.6 243.3 436.5 244.3 436.5ZM244.3 438.8C243.537 438.757 242.785 439.008 242.2 439.5C241.629 440.14 241.278 440.946 241.2 441.8H247.2C247.2 441.4 247.2 441 247 440.6L246.5 439.6L245.6 439C245.187 438.838 244.743 438.77 244.3 438.8ZM625.1 451V437.7H627.1L627.7 437.8L628 438.5L628.2 440.1C628.6 439.3 629.2 438.6 629.8 438.1C630.5 437.7 631.2 437.4 632 437.4C632.6 437.4 633.2 437.6 633.6 437.9L633.2 440.3C633.2 440.4 633.2 440.5 633 440.6L632.7 440.7H632.2L631.2 440.5C630.6 440.5 630 440.7 629.5 441.1C629.1 441.4 628.7 442 628.3 442.7V451H625.1ZM638.7 437.7V446.1C638.7 447 638.9 447.6 639.2 448.1C639.6 448.5 640.2 448.7 640.9 448.7C641.5 448.7 642 448.6 642.5 448.3C643 448.1 643.5 447.7 643.9 447.3V437.7H647.1V451H645.1C644.7 451 644.4 450.8 644.3 450.4L644.1 449.4L643.2 450.1C642.286 450.813 641.16 451.2 640 451.2C639.2 451.2 638.6 451.1 638 450.8C637.5 450.6 637 450.2 636.6 449.8C636.2 449.3 636 448.8 635.8 448.2C635.6 447.6 635.5 446.9 635.5 446.2V437.7H638.7ZM650.5 451V437.7H652.5C652.9 437.7 653.2 437.9 653.3 438.2L653.5 439.3C654.03 438.777 654.637 438.339 655.3 438C656.043 437.628 656.87 437.456 657.7 437.5C658.323 437.444 658.95 437.542 659.526 437.786C660.101 438.031 660.608 438.413 661 438.9C661.4 439.3 661.7 439.9 661.9 440.5C662.1 441.1 662.1 441.8 662.1 442.5V451H659V442.5C659 441.7 658.8 441.1 658.5 440.6C658.1 440.2 657.5 439.9 656.8 439.9C656.2 439.9 655.7 440.1 655.2 440.3L653.8 441.3V451H650.6H650.5ZM755.9 297.4V279.7H757.9L758.4 279.8L758.7 280.2L758.9 281.5C759.5 280.9 760.1 280.4 760.8 280C761.477 279.649 762.226 279.457 762.989 279.44C763.751 279.423 764.508 279.58 765.2 279.9C765.8 280.2 766.4 280.6 766.8 281.2C767.2 281.8 767.6 282.5 767.8 283.3C768.316 285.165 768.316 287.135 767.8 289C767.5 289.8 767.1 290.6 766.6 291.2C765.908 292.081 764.955 292.72 763.877 293.026C762.799 293.331 761.652 293.287 760.6 292.9L759.1 291.9V297.4H756H755.9ZM762.1 282C761.5 282 760.9 282 760.4 282.4C759.899 282.72 759.459 283.126 759.1 283.6V289.6C759.399 290.001 759.794 290.321 760.248 290.53C760.702 290.74 761.201 290.833 761.7 290.8C762.2 290.8 762.7 290.7 763 290.5C763.4 290.3 763.7 290 764 289.6C764.3 289.3 764.5 288.8 764.6 288.2C764.9 286.884 764.9 285.517 764.6 284.2C764.6 283.7 764.4 283.2 764.1 282.9C763.9 282.6 763.6 282.3 763.3 282.2C762.9 282 762.6 282 762.1 282ZM773.5 279.7V288.1C773.5 289 773.7 289.6 774.1 290.1C774.5 290.5 775.1 290.7 775.8 290.7C776.4 290.7 776.8 290.6 777.4 290.3C777.9 290.1 778.4 289.7 778.7 289.3V279.7H782V293H780C779.6 293 779.3 292.8 779.2 292.4L779 291.4L778 292.1C777.086 292.813 775.96 293.2 774.8 293.2C774.1 293.2 773.5 293.1 772.9 292.8C772.3 292.6 771.9 292.2 771.5 291.8C771.1 291.3 770.8 290.8 770.6 290.2C770.4 289.6 770.3 288.9 770.3 288.2V279.7H773.5ZM793.3 282.3L793 282.6H792.2C791.706 282.355 791.206 282.121 790.7 281.9L789.7 281.8C789.1 281.8 788.6 281.9 788.2 282.2C787.8 282.5 787.6 282.8 787.6 283.2C787.6 283.5 787.7 283.8 787.9 284L788.7 284.5L789.7 284.9C790.51 285.137 791.31 285.404 792.1 285.7L793.1 286.4C793.5 286.7 793.7 287 793.9 287.4C794.1 287.8 794.2 288.2 794.2 288.8C794.2 289.4 794.1 290 793.8 290.5C793.6 291.1 793.2 291.5 792.8 292C792.3 292.3 791.8 292.7 791.1 292.9C789.936 293.271 788.698 293.34 787.5 293.1C786.657 292.931 785.847 292.627 785.1 292.2L784.2 291.6L785 290.3L785.3 290L785.8 289.9C786 289.9 786.2 289.9 786.4 290.1C786.852 290.362 787.319 290.596 787.8 290.8L789 291C789.4 291 789.7 291 790 290.8C790.3 290.8 790.5 290.6 790.7 290.5L791 290L791.2 289.3C791.2 289 791.1 288.8 790.9 288.6L790.2 288.1L789.1 287.7C788.288 287.397 787.487 287.063 786.7 286.7C786.3 286.7 785.9 286.4 785.7 286.1C785.3 285.8 785.1 285.4 784.9 285.1C784.7 284.6 784.6 284.1 784.6 283.5C784.609 282.968 784.729 282.444 784.953 281.962C785.177 281.48 785.5 281.05 785.9 280.7C786.3 280.3 786.9 280 787.5 279.7L789.6 279.5C790.6 279.5 791.4 279.6 792.1 279.9C792.9 280.2 793.5 280.6 794.1 281.1L793.3 282.3ZM796.7 293V273.7H800V281.1C800.5 280.6 801 280.2 801.7 279.9C802.394 279.602 803.146 279.466 803.9 279.5C804.6 279.5 805.2 279.5 805.9 279.8C806.4 280.1 806.9 280.4 807.2 280.8C807.6 281.3 807.9 281.8 808.1 282.5C808.3 283.1 808.4 283.8 808.4 284.5V293H805.2V284.5C805.2 283.7 805 283.1 804.6 282.6C804.2 282.2 803.6 282 802.9 282C802.3 282 801.9 282 801.3 282.3C800.9 282.6 800.3 282.9 800 283.3V293H796.7ZM853.4 297.4V279.7H855.4L855.9 279.8C856.1 279.9 856.2 280 856.2 280.2L856.5 281.5C857 280.9 857.6 280.4 858.3 280C858.99 279.633 859.757 279.432 860.538 279.415C861.32 279.398 862.094 279.564 862.8 279.9C863.4 280.2 863.8 280.6 864.3 281.2C864.8 281.8 865.1 282.5 865.3 283.3C865.816 285.165 865.816 287.135 865.3 289C865 289.8 864.6 290.6 864.1 291.2C863.408 292.081 862.455 292.72 861.377 293.026C860.299 293.331 859.152 293.287 858.1 292.9L856.6 291.9V297.4H853.4ZM859.7 282C859 282 858.4 282 858 282.4C857.463 282.71 856.988 283.117 856.6 283.6V289.6C856.899 290.001 857.294 290.321 857.748 290.53C858.202 290.74 858.701 290.833 859.2 290.8C859.7 290.8 860.2 290.7 860.5 290.5C860.9 290.3 861.3 290 861.5 289.6C861.8 289.3 862 288.8 862.2 288.2C862.5 286.884 862.5 285.517 862.2 284.2L861.7 282.9C861.4 282.6 861.1 282.3 860.8 282.2C860.5 282 860.1 282 859.7 282ZM871.1 279.7V288.1C871.1 289 871.3 289.6 871.6 290.1C872 290.5 872.6 290.7 873.3 290.7C873.9 290.7 874.4 290.6 874.9 290.3C875.4 290.1 875.9 289.7 876.3 289.3V279.7H879.5V293H877.5C877.1 293 876.8 292.8 876.7 292.4L876.5 291.4L875.6 292.1C874.686 292.813 873.56 293.2 872.4 293.2C871.6 293.2 871 293.1 870.4 292.8C869.9 292.6 869.4 292.2 869 291.8C868.6 291.3 868.3 290.8 868.2 290.2C868 289.6 867.9 288.9 867.9 288.2V279.7H871.1ZM886.3 273.7V293H883.1V273.7H886.3ZM893.3 273.7V293H890.2V273.7H893.4H893.3ZM455.8 293H454.4L453.7 292.9C453.5 292.8 453.4 292.6 453.3 292.3L453 291.3C452.387 291.839 451.717 292.309 451 292.7L449.9 293.1C448.938 293.282 447.947 293.248 447 293L445.8 292.3L445 291.2C444.792 290.693 444.689 290.148 444.7 289.6C444.7 289.1 444.9 288.6 445.1 288.1C445.4 287.6 445.8 287.1 446.4 286.8C447.1 286.4 447.9 286.1 448.9 285.8C449.9 285.5 451.2 285.4 452.7 285.4V284.6C452.7 283.6 452.5 283 452.1 282.6C451.8 282.2 451.2 282 450.5 282C449.734 281.952 448.97 282.126 448.3 282.5L447.6 283L446.9 283.1C446.695 283.13 446.485 283.095 446.3 283L445.9 282.5L445.3 281.5C446.841 280.139 448.846 279.422 450.9 279.5C451.7 279.5 452.4 279.5 452.9 279.8C453.506 280.031 454.053 280.393 454.502 280.859C454.951 281.326 455.292 281.886 455.5 282.5C455.7 283.1 455.8 283.8 455.8 284.5V293ZM449.6 291H450.6C451.124 290.85 451.604 290.575 452 290.2L452.7 289.6V287.3L450.4 287.5L448.8 288C448.487 288.129 448.212 288.336 448 288.6L447.8 289.4C447.8 290 448 290.4 448.3 290.6C448.6 290.9 449.1 291 449.6 291ZM466.9 282.3L466.6 282.6H465.8C465.339 282.356 464.872 282.123 464.4 281.9L463.3 281.8C462.7 281.8 462.2 281.9 461.8 282.2C461.4 282.5 461.3 282.8 461.3 283.2C461.3 283.5 461.3 283.8 461.5 284L462.3 284.5L463.3 284.9C464.11 285.137 464.91 285.404 465.7 285.7C466.1 285.9 466.5 286.1 466.7 286.4C467.1 286.7 467.3 287 467.5 287.4C467.7 287.8 467.8 288.2 467.8 288.8C467.8 289.4 467.7 290 467.4 290.5C467.2 291.1 466.9 291.5 466.4 292C466 292.3 465.4 292.7 464.7 292.9C463.537 293.271 462.298 293.34 461.1 293.1C460.257 292.931 459.447 292.627 458.7 292.2L457.8 291.6L458.6 290.3L458.9 290L459.4 289.9C459.6 289.9 459.8 289.9 460 290.1C460.452 290.362 460.919 290.596 461.4 290.8L462.6 291C463 291 463.3 291 463.6 290.8C463.9 290.8 464.1 290.6 464.3 290.5L464.7 290V289.3C464.7 289 464.7 288.8 464.5 288.6L463.8 288.1L462.8 287.7C461.954 287.399 461.12 287.066 460.3 286.7C459.9 286.7 459.5 286.4 459.3 286.1C458.9 285.8 458.7 285.4 458.5 285.1C458.3 284.6 458.2 284.1 458.2 283.5C458.209 282.968 458.329 282.444 458.553 281.962C458.777 281.48 459.1 281.05 459.5 280.7C459.9 280.3 460.5 280 461.1 279.7L463.2 279.5C464.2 279.5 465 279.6 465.8 279.9C466.5 280.2 467.1 280.6 467.6 281.1L466.9 282.3ZM478.3 282.3L478 282.6H477.1C476.639 282.356 476.172 282.123 475.7 281.9L474.7 281.8C474 281.8 473.5 281.9 473.2 282.2C472.8 282.5 472.6 282.8 472.6 283.2C472.6 283.5 472.7 283.8 472.9 284L473.6 284.5L474.6 284.9C475.443 285.135 476.277 285.402 477.1 285.7L478.1 286.4L478.9 287.4C479.1 287.8 479.1 288.2 479.1 288.8C479.1 289.4 479.1 290 478.8 290.5C478.6 291.1 478.2 291.5 477.8 292C477.3 292.3 476.8 292.7 476.1 292.9C474.937 293.271 473.698 293.34 472.5 293.1C471.657 292.931 470.847 292.627 470.1 292.2L469.1 291.6L469.9 290.3L470.3 290L470.8 289.9C471 289.9 471.2 289.9 471.3 290.1C471.784 290.366 472.285 290.6 472.8 290.8L474 291C474.4 291 474.7 291 475 290.8L475.6 290.5L476 290L476.1 289.3C476.1 289 476.1 288.8 475.9 288.6L475.1 288.1L474.1 287.7C473.288 287.397 472.487 287.063 471.7 286.7C471.3 286.7 470.9 286.4 470.6 286.1L469.9 285.1C469.7 284.6 469.6 284.1 469.6 283.5C469.609 282.968 469.729 282.444 469.953 281.962C470.177 281.48 470.5 281.05 470.9 280.7C471.3 280.3 471.9 280 472.4 279.7L474.6 279.5C475.6 279.5 476.4 279.6 477.1 279.9C477.9 280.2 478.5 280.6 479.1 281.1L478.3 282.3ZM487.3 279.5C488.1 279.5 488.8 279.5 489.6 279.9C490.29 280.15 490.916 280.548 491.434 281.066C491.953 281.585 492.351 282.211 492.6 282.9C492.974 283.923 493.11 285.017 493 286.1L492.9 286.5L492.6 286.7C492.501 286.715 492.4 286.715 492.3 286.7H484C484.1 288.1 484.5 289.1 485.1 289.7C485.8 290.4 486.6 290.7 487.7 290.7C488.2 290.7 488.7 290.7 489 290.5C489.4 290.5 489.7 290.3 490 290.1L490.8 289.7L491.4 289.5L491.7 289.6L492 289.8L492.9 291C492.5 291.4 492.1 291.8 491.7 292C490.824 292.553 489.831 292.895 488.8 293C488.3 293.2 487.8 293.2 487.4 293.2C486.4 293.2 485.6 293 484.8 292.7C484 292.4 483.3 292 482.8 291.4C482.1 290.8 481.7 290 481.3 289.1C480.683 287.284 480.683 285.316 481.3 283.5C481.6 282.7 482 282 482.5 281.4C483.064 280.801 483.745 280.325 484.5 280C485.3 279.6 486.2 279.5 487.2 279.5H487.3ZM487.3 281.8C486.905 281.766 486.508 281.81 486.13 281.93C485.753 282.05 485.402 282.244 485.1 282.5C484.529 283.14 484.178 283.946 484.1 284.8H490.1L490 283.6C489.8 283.3 489.7 282.9 489.4 282.6L488.5 282C488.118 281.852 487.71 281.784 487.3 281.8ZM500 293.2C498.8 293.2 498 292.9 497.3 292.2C496.7 291.6 496.4 290.7 496.4 289.5V282.1H495C494.9 282.1 494.7 282.1 494.6 281.9L494.4 281.4V280L496.6 279.7L497.2 276L497.5 275.6L497.9 275.5H499.6V279.7H503.1V282H499.6V289.2C499.6 289.6 499.7 289.9 499.9 290.2C500.1 290.4 500.4 290.5 500.8 290.5H501.3C501.511 290.424 501.713 290.324 501.9 290.2L502.1 290.1H502.3L502.5 290.4L503.5 291.9L501.9 292.9C501.282 293.068 500.64 293.135 500 293.1V293.2ZM513.6 282.2C513.6 282.4 513.4 282.5 513.3 282.6H512.5C512.006 282.355 511.506 282.121 511 281.9L510 281.8C509.4 281.8 508.9 281.9 508.5 282.2C508.1 282.5 507.9 282.8 507.9 283.2C507.9 283.5 508 283.8 508.2 284L509 284.5L510 284.9C510.81 285.137 511.61 285.404 512.4 285.7L513.4 286.4C513.8 286.7 514 287 514.2 287.4C514.4 287.8 514.5 288.2 514.5 288.8C514.5 289.4 514.4 290 514.1 290.5C513.9 291.1 513.5 291.5 513.1 292C512.6 292.3 512.1 292.7 511.4 292.9C510.237 293.271 508.998 293.34 507.8 293.1C506.957 292.931 506.147 292.627 505.4 292.2L504.5 291.6L505.3 290.3L505.6 290L506.1 289.9C506.3 289.9 506.5 289.9 506.7 290.1C507.152 290.362 507.619 290.596 508.1 290.8L509.3 291C509.7 291 510 291 510.3 290.8C510.6 290.8 510.8 290.6 511 290.5L511.3 290L511.5 289.3C511.5 289 511.4 288.8 511.2 288.6C511 288.4 510.8 288.2 510.4 288.1L509.4 287.7C508.588 287.397 507.787 287.063 507 286.7C506.6 286.7 506.2 286.4 506 286.1C505.6 285.8 505.4 285.4 505.2 285.1C505 284.6 504.9 284.1 504.9 283.5C504.909 282.968 505.029 282.444 505.253 281.962C505.477 281.48 505.8 281.05 506.2 280.7C506.6 280.3 507.2 280 507.8 279.7L509.9 279.5C510.9 279.5 511.7 279.6 512.4 279.9C513.2 280.2 513.8 280.6 514.4 281.1L513.6 282.3V282.2ZM809.5 448.4C809.5 448.8 809.3 449.1 808.9 449.3L804.5 450.6C804.567 454.378 804.834 458.15 805.3 461.9C805.3 462.1 805.2 462.2 805 462.2C804.6 462.2 804.2 462.2 804 461.9C803.7 461.6 803.5 461.2 803.4 460.9C803.073 458.985 802.939 457.042 803 455.1L802.7 451C802.3 451 801.8 451 801.2 451.2L799.7 451.5C799.1 451.6 798.5 451.5 798.1 451.2L797.8 450.7V450.4C798.3 450.2 799.1 449.9 800.4 449.7C801.6 449.4 802.4 449.1 803 448.7C803.4 448.9 804 448.9 804.6 448.8C805.2 448.8 805.7 448.6 806.3 448.4L807.4 448L808.6 447.8C808.9 447.8 809 447.8 809 448.1C809.3 448.1 809.5 448.1 809.5 448.4ZM816.3 460.4C816.4 460.8 816.1 461.1 815.5 461.3C814.7 460.8 813.8 460.1 812.6 459L809.7 456.7C809.649 458.5 809.649 460.3 809.7 462.1L809.5 462.2L809.1 462.3C808.5 462.3 808.1 461.9 808.1 461.2V460.4V459.7L808 456.9L807.7 454.7C807.5 452.9 807.5 451.4 807.5 450.1C807.5 449.3 808.3 448.9 809.8 448.8C810.5 448.8 811.1 449 811.8 449.6C812.3 450.2 812.6 450.9 812.7 451.6C812.7 452.3 812.6 452.9 812.2 453.6C811.8 454.2 811.4 454.6 810.9 455C810.6 455.2 810.5 455.4 810.5 455.5C810.5 455.7 810.7 455.9 811 456.1L811.7 456.5L814.1 458.3C815.1 459 815.8 459.7 816.3 460.3V460.4ZM811.2 451.8V451.2L810.7 450.5C810.5 450.3 810.2 450.2 809.7 450.2C809.4 450.2 809.2 450.4 809.2 450.6V451.7C809.265 452.604 809.365 453.504 809.5 454.4C810.5 453.4 811.1 452.6 811.2 451.8ZM822.3 458.6L822.5 459.1C822.5 459.4 822.5 459.6 822.2 459.8L821.8 460.2C821.1 460.2 820.7 459.6 820.4 458.7C820.1 457.7 819.8 456.9 819.4 456.3L818.1 456.5L817 457.1L816.6 459.4L816.2 461.7C816.2 461.9 815.9 462 815.5 461.9C815.1 461.9 814.8 461.7 814.8 461.4C814.7 460.9 814.8 460.2 815 459.4C815.3 458.4 815.4 457.6 815.4 457.2C815.4 457.1 815.4 457 815.1 456.8L814.8 456.5L814.9 456.3L815.3 456.1C815.673 454.777 816.006 453.443 816.3 452.1C816.7 450.4 816.9 449.1 817.2 448.3C817.2 448.1 817.4 448 817.7 448H818.2C818.6 448.4 818.9 448.8 819 449.4L819.4 451.1C820.4 454.1 821.4 456.6 822.4 458.6H822.3ZM819 455C819 454.5 818.8 454 818.6 453.4L818 451.8L817.3 455.2L819 455ZM824.3 449L824.5 450.2L824.6 454.3C824.598 456.038 824.698 457.774 824.9 459.5C824.9 459.9 824.6 460.1 824.2 460.1C823.6 460.1 823.3 459.9 823.2 459.5L823 458C822.9 457.1 822.8 455.8 822.9 454C822.919 452.295 822.819 450.591 822.6 448.9C822.7 448.6 822.9 448.5 823.3 448.4C823.5 448.4 823.8 448.4 824 448.6L824.2 448.5V449H824.3ZM833.7 446C833.738 449.601 833.804 453.201 833.9 456.8L834.1 458.2C834.1 458.4 834.1 458.6 833.9 458.8L833.4 459.1C833 459.1 832.6 458.9 832.3 458.3C830.783 455.885 829.414 453.381 828.2 450.8C828.1 450.8 828 450.8 828 451.1C827.967 454.115 828.201 457.127 828.7 460.1C828.7 460.5 828.7 460.8 828.5 461L828.2 461.2L827.8 461.1L827.4 460.9C827.2 460.9 827.1 460.7 827 460.5C826.858 459.501 826.725 458.501 826.6 457.5C826.204 453.948 826.07 450.372 826.2 446.8C826.2 446.6 826.4 446.4 826.9 446.3L827.9 446.7C828.4 447.5 829.1 448.7 829.9 450.5L831.9 454.3L832 446.2C832 445.9 832.2 445.8 832.6 445.7H833L833.4 445.8L833.7 446.1V446ZM837.2 447.7L837.3 448.9L837.5 453C837.498 454.738 837.598 456.474 837.8 458.2C837.7 458.5 837.4 458.7 837 458.8C836.5 458.8 836.1 458.6 836 458.1L835.8 456.7L835.7 452.6C835.748 450.931 835.681 449.26 835.5 447.6C835.5 447.3 835.8 447.1 836.1 447.1L836.9 447.2L837.1 447.3V447.7H837.2ZM846.5 444.7C846.538 448.301 846.604 451.901 846.7 455.5L846.9 456.8L846.8 457.4L846.2 457.7C845.8 457.7 845.4 457.5 845.1 457C843.58 454.553 842.21 452.015 841 449.4L840.9 449.7C840.828 452.745 841.029 455.791 841.5 458.8C841.6 459.2 841.5 459.5 841.3 459.6L841 459.8H840.6L840.2 459.6C839.923 458.469 839.656 457.336 839.4 456.2C839.004 452.648 838.87 449.072 839 445.5C839 445.2 839.2 445 839.7 445C839.9 445 840.3 445 840.7 445.4C841.2 446.1 841.9 447.4 842.7 449.1L844.7 452.9L844.9 444.9C844.9 444.6 845.1 444.4 845.4 444.4H846.2L846.5 444.7ZM855.5 450.9C855.2 451.9 855.1 452.9 855.1 454.3L855.3 457.7C855.3 458 855.1 458.2 854.7 458.2C854.568 458.227 854.432 458.227 854.3 458.2C853.7 458 853.3 457.6 853.3 457V456.1V455.3V453.5C852.503 454.459 851.516 455.243 850.4 455.8L850 455.9C849.3 455.9 848.7 455.7 848.2 455.1C847.8 454.7 847.6 454.3 847.6 453.7L847.7 451.9C848.225 449.533 849.137 447.269 850.4 445.2C851.1 444.2 851.7 443.5 852.3 443.5C852.8 443.5 853.2 443.5 853.3 444C853.3 444.3 853.3 444.6 853 444.7L852.3 445.2C851.3 446.6 850.5 448.2 849.7 450.3C849.237 451.545 849.099 452.887 849.3 454.2L849.4 454.3C849.5 454.5 849.6 454.5 849.7 454.4C850.5 454 851.7 452.9 853.3 451.3C853.5 451.2 853.6 450.8 853.7 450.3C853.8 449.9 854 449.7 854.4 449.7H855C855.3 450 855.5 450.3 855.5 450.5V450.9ZM815.6 477.6C815.6 477.9 815.4 478.1 814.8 478.3C814 477.9 813 477.1 811.8 476.1L809 474C808.949 475.8 808.949 477.6 809 479.4H808.7C808.6 479.6 808.5 479.6 808.4 479.6C807.8 479.6 807.4 479.1 807.4 478.5V477.7V476.9C807.4 476.2 807.4 475.2 807.2 474.2L807 472C806.8 470.2 806.7 468.7 806.8 467.4C806.8 466.6 807.6 466.1 809 466C809.7 466 810.4 466.3 811 467C811.6 467.5 811.9 468.2 812 469C812 469.5 811.9 470.2 811.5 470.9C811.1 471.5 810.7 471.9 810.1 472.3C809.9 472.5 809.8 472.6 809.8 472.8C809.8 473 810 473.2 810.3 473.4L811 473.8L813.4 475.6C814.4 476.3 815.1 477 815.6 477.6ZM810.5 468.9L810.4 468.3C810.4 468 810.2 467.7 810 467.5C809.8 467.3 809.4 467.2 809 467.3C808.7 467.3 808.5 467.4 808.4 467.7V468.8C808.498 469.705 808.632 470.606 808.8 471.5C809.8 470.5 810.4 469.7 810.4 468.9H810.5ZM820.3 466.7L818.3 467.7L816.1 468.5V470.9H816.9C817.1 470.9 817.4 470.9 817.8 470.7L818.7 470.5C819.1 470.5 819.4 470.5 819.7 470.7L820 471.1L819.9 471.4L819.7 471.7L819.3 471.9L817.8 472.2C817.1 472.2 816.6 472.4 816.3 472.6C816.178 473.36 816.145 474.132 816.2 474.9C816.2 475.3 816.2 475.6 816.4 475.9C817.1 476.2 818.2 476.3 819.7 476L820 475.9C820.1 475.7 820.2 475.7 820.3 475.7C820.7 475.6 821 475.8 821.1 476.4V477L820.6 477.4C819 477.6 817.6 477.6 816.4 477.4C816 477.4 815.7 477.2 815.4 476.9C815 476.6 814.8 476.3 814.7 475.9L814.4 472.8C814 472.6 813.8 472.4 813.8 472.1L814.1 471.8L814.4 471.4V469.5C813.6 469.5 813.2 469.2 813.2 468.8C813.2 468.4 813.3 468.1 813.8 467.8L815 467.1C815.4 466.8 816 466.6 816.8 466.3C817.464 466.027 818.131 465.76 818.8 465.5C819.2 465.5 819.7 465.5 820.2 465.8L820.3 466.1L820.4 466.4V466.7H820.3ZM824.8 464.1C824.8 464.4 824.6 464.6 824.3 464.9H823.6L823.4 465C822.967 465.522 822.691 466.156 822.602 466.828C822.514 467.5 822.617 468.184 822.9 468.8L824.7 471.8C825.346 472.694 825.79 473.718 826 474.8C826.1 475.6 826 476.3 825.7 477C825.7 477.3 825.3 477.6 824.9 478C824.5 478.3 824.2 478.5 823.9 478.5C823.801 478.515 823.7 478.515 823.6 478.5C823.2 478.4 822.9 478.2 822.9 477.9L823.1 477.3L823.5 477.1C823.7 477.1 823.8 477.1 823.9 476.9C824.1 476.3 824.2 475.6 824.1 475C824.1 474.2 823.5 473 822.4 471.4C821.554 470.278 820.972 468.979 820.7 467.6C820.7 466.8 820.7 466.1 821 465.4C821.3 464.6 821.7 464.1 822.3 463.7C822.6 463.5 822.9 463.4 823.3 463.4C823.8 463.3 824.3 463.4 824.5 463.7C824.7 463.8 824.8 464 824.8 464.1ZM826.5 468.1L826.4 466.9C826.3 466 826.6 465.6 827.2 465.5H827.6L828.1 465.8C828.378 467.789 828.545 469.792 828.6 471.8L828.8 473.6L829.4 475.2C829.9 474.5 830.2 473.6 830.4 472.5L830.8 469.6C830.8 468.5 831.1 467.6 831.3 466.8L831.5 465.8V464.6C831.7 464.3 831.9 464.1 832.3 464.1C832.8 464.1 833.1 464.1 833.3 464.4C833.3 465.4 833.2 466.6 832.9 468.2L832.3 472.1C832.146 473.446 831.702 474.742 831 475.9C830.6 476.7 830 477.1 829.3 477.2C828.7 477.2 828.3 476.9 827.9 476.2C827.2 475 826.9 473.5 826.6 471.9V468.1H826.5ZM840.5 472.3L838.4 474.2C837.632 474.857 836.793 475.427 835.9 475.9C835.8 475.9 835.6 475.9 835.4 475.6L835 475.2C834.8 474 834.7 472.4 834.7 470.2C834.657 467.959 834.49 465.723 834.2 463.5C834.3 463.3 834.5 463.2 834.8 463.2C835.3 463.2 835.6 463.3 835.8 463.7L836.1 468.6C836.2 470.8 836.3 472.4 836.5 473.5L837.8 472.5C838.4 472 838.8 471.6 839.2 471.5L839.5 471.4L839.9 471.3C840.1 471.3 840.3 471.3 840.5 471.5C840.7 471.8 840.7 472.1 840.5 472.3ZM850.1 461.1C850 461.6 849.8 461.9 849.5 462L845.1 463.3C845.167 467.078 845.434 470.85 845.9 474.6C845.9 474.9 845.7 475 845.5 475C845.1 475 844.8 474.9 844.5 474.6C844.2 474.3 844 474 844 473.6C843.646 471.721 843.478 469.812 843.5 467.9C843.5 466 843.3 464.6 843.2 463.7C842.9 463.7 842.4 463.7 841.7 464L840.2 464.3C839.6 464.3 839.1 464.3 838.6 463.9L838.3 463.4L838.4 463.1L841 462.4C842.1 462.2 843 461.9 843.5 461.5C844 461.6 844.5 461.6 845.1 461.5C846.1 461.375 847.077 461.106 848 460.7L849.2 460.5C849.4 460.5 849.5 460.5 849.5 460.8C849.9 460.8 850 460.8 850.1 461.1ZM851.7 461.3C851.7 461.5 851.5 461.8 851.2 462C851.1 462.1 851 462.1 850.8 462H850.5L850.3 462.2C849.867 462.722 849.591 463.356 849.502 464.028C849.414 464.7 849.517 465.384 849.8 466L851.6 468.9C852.259 469.823 852.704 470.883 852.9 472C853 472.8 852.9 473.5 852.6 474.2C852.6 474.4 852.3 474.8 851.8 475.2C851.5 475.5 851.1 475.7 850.8 475.7C850.701 475.715 850.6 475.715 850.5 475.7C850.1 475.6 849.8 475.4 849.8 475.1C849.8 474.9 849.8 474.7 850.1 474.5L850.4 474.3C850.6 474.3 850.7 474.2 850.8 474C851 473.4 851.1 472.8 851 472.2C851 471.3 850.4 470.2 849.3 468.6C848.454 467.478 847.872 466.179 847.6 464.8C847.6 464 847.6 463.2 847.9 462.6C848.2 461.8 848.6 461.2 849.3 460.8L850.1 460.5C850.7 460.5 851.1 460.5 851.4 460.9C851.6 460.9 851.7 461.1 851.7 461.3Z" fill="#3D4251"/>
</svg>
